<svg xmlns="http://www.w3.org/2000/svg" viewBox="0 0 750 500"><g id="freepik--background-complete--inject-9"><polygon points="409.49 47.86 409.49 179.97 238.86 179.97 232.72 48.79 409.49 47.86" style="fill:#e0e0e0"></polygon><rect x="252.36" y="28.99" width="131.34" height="170.63" transform="translate(203.73 432.33) rotate(-90)" style="fill:#fff"></rect><path d="M404,180.62H232.06V48H404Zm-170.62-1.3H402.69v-130H233.37Z" style="fill:#e0e0e0"></path><rect x="251.19" y="62.13" width="133.67" height="100.55" style="fill:#fff"></rect><path d="M384.86,62.13l-.65,0h-1.88l-7.28,0-27.41.08-96.45.15.31-.3c0,30.16,0,64.39,0,100.54h0l-.34-.34,133.67.06-.28.28c.06-30.39.11-55.49.15-73,0-8.77,0-15.64.07-20.33,0-2.34,0-4.13,0-5.36s0-1.85,0-1.85,0,.6,0,1.79,0,3,0,5.3c0,4.69,0,11.53.07,20.27,0,17.57.09,42.73.15,73.19V163h-.28L251.19,163h-.33v-.34h0c0-36.15,0-70.38,0-100.54v-.31h.3l96.65.15,27.34.09,7.22,0,1.85,0Z" style="fill:#e0e0e0"></path><path d="M232.71,48.33a15.64,15.64,0,0,1,2.89,1.77c1.73,1.17,4.1,2.82,6.66,4.71s4.84,3.69,6.44,5a16,16,0,0,1,2.49,2.29,17.86,17.86,0,0,1-2.79-1.92l-6.54-4.85-6.54-4.87A18.22,18.22,0,0,1,232.71,48.33Z" style="fill:#e0e0e0"></path><path d="M403.34,48.63c.11.15-3.94,3.3-9,7s-9.33,6.63-9.44,6.48,3.94-3.3,9-7S403.23,48.48,403.34,48.63Z" style="fill:#e0e0e0"></path><line x1="403.34" y1="179.97" x2="384.18" y2="162.68" style="fill:#fff"></line><path d="M384.18,162.68c.13-.14,4.52,3.62,9.81,8.39s9.48,8.76,9.35,8.9-4.51-3.62-9.81-8.39S384.06,162.82,384.18,162.68Z" style="fill:#e0e0e0"></path><path d="M232.71,180c-.12-.14,3.87-3.95,8.92-8.51s9.25-8.14,9.38-8-3.87,3.95-8.92,8.51S232.84,180.11,232.71,180Z" style="fill:#e0e0e0"></path><path d="M350.27,111.49a16.13,16.13,0,1,1-12.43-19.13A16.13,16.13,0,0,1,350.27,111.49Z" style="fill:#f5f5f5"></path><path d="M329.25,123.46c-.17-.08.52-1.74,1.4-4.46a26.89,26.89,0,0,0,1.48-10.85,15,15,0,0,0-4.72-9.51c-2.09-1.87-3.91-2.26-3.83-2.48s2,0,4.4,1.79a14.81,14.81,0,0,1,5.4,10.07,23.73,23.73,0,0,1-1.89,11.28C330.37,122,329.39,123.52,329.25,123.46Z" style="fill:#e0e0e0"></path><path d="M350.07,106.18c-.07.37-4.35-1.18-9.38.32s-7.8,5.08-8.06,4.81c-.13-.09.37-1.11,1.64-2.41a14.16,14.16,0,0,1,6.07-3.6,14.31,14.31,0,0,1,7.05-.26C349.16,105.45,350.13,106,350.07,106.18Z" style="fill:#e0e0e0"></path><path d="M342.79,105.36c-.2,0-.11-1.13-.69-2.71a7.24,7.24,0,0,0-10.48-4.08c-1.5.77-2.19,1.65-2.35,1.52s.33-1.2,1.89-2.29A7.61,7.61,0,0,1,343,102.4C343.36,104.26,342.92,105.4,342.79,105.36Z" style="fill:#e0e0e0"></path><path d="M337.65,107.06c-.36-.07-.1-2.28-.74-4.86s-1.84-4.44-1.55-4.67,2.08,1.46,2.77,4.38S338,107.18,337.65,107.06Z" style="fill:#e0e0e0"></path><path d="M337.5,102c0,.38-1.41.45-2.74,1.15s-2.45,1.65-2.72,1.38.45-1.54,2.15-2.49S337.57,101.71,337.5,102Z" style="fill:#e0e0e0"></path><path d="M311.69,109.57a12.24,12.24,0,1,1-17.25,1.5A12.25,12.25,0,0,1,311.69,109.57Z" style="fill:#f5f5f5"></path><path d="M312.2,127.92a21.42,21.42,0,0,1-2.48-2.53,20.43,20.43,0,0,0-6.74-4.86,11.46,11.46,0,0,0-8.05-.24,21.27,21.27,0,0,0-3,1.68c-.08,0,.68-1.33,2.77-2.3a11.2,11.2,0,0,1,8.67,0,18,18,0,0,1,6.88,5.29C311.63,126.65,312.3,127.85,312.2,127.92Z" style="fill:#e0e0e0"></path><path d="M308.07,107.81c.22.19-2.35,2.5-3.14,6.4s.62,7,.34,7.11c-.1.05-.61-.64-1-2a10.88,10.88,0,0,1,2.1-10.16C307.25,108.16,308,107.72,308.07,107.81Z" style="fill:#e0e0e0"></path><path d="M304.92,112.4c-.09.13-.8-.33-2.07-.5a5.83,5.83,0,0,0-4.55,1.23,5.9,5.9,0,0,0-1.92,4.32c0,1.28.33,2.06.19,2.12s-.69-.65-.86-2.08a5.75,5.75,0,0,1,7.28-6.25C304.38,111.62,305,112.32,304.92,112.4Z" style="fill:#e0e0e0"></path><path d="M304.22,116.45c-.18.21-1.57-.75-3.52-1.24s-3.63-.36-3.68-.63,1.72-.87,3.92-.29S304.41,116.28,304.22,116.45Z" style="fill:#e0e0e0"></path><path d="M300.79,114.74c.24.15-.21,1.1-.21,2.25s.23,2.23-.05,2.31-.87-.85-.9-2.33S300.61,114.59,300.79,114.74Z" style="fill:#e0e0e0"></path><path d="M312.21,105.36c-4.32-2.82-7-7.84-8.7-12.71a24,24,0,0,1-.2-15.22,19.82,19.82,0,0,1,10.41,11.13c1.8,4.89.74,12.1-1.51,16.8" style="fill:#ebebeb"></path><path d="M307.18,85.42a173.67,173.67,0,0,1,4.65,19.23" style="fill:#fff"></path><path d="M311.83,104.65a12.85,12.85,0,0,1-.78-2.8c-.47-2-1-4.28-1.6-6.8s-1.19-4.79-1.68-6.78a13,13,0,0,1-.59-2.85,11.39,11.39,0,0,1,1.05,2.71c.55,1.71,1.23,4.1,1.88,6.76s1.12,5.09,1.41,6.86A11.77,11.77,0,0,1,311.83,104.65Z" style="fill:#e0e0e0"></path><path d="M323.16,127.32c5.06-1.06,10.49.61,15.15,2.84a23.9,23.9,0,0,1,10.9,10.62,19.86,19.86,0,0,1-15.23-.5c-4.73-2.19-9.08-8-10.82-13" style="fill:#ebebeb"></path><path d="M340.83,137.87a172.43,172.43,0,0,1-16.89-10.32" style="fill:#fff"></path><path d="M323.94,127.55a13.9,13.9,0,0,1,2.53,1.43l5.94,3.68,6,3.61a13.19,13.19,0,0,1,2.43,1.6,11.48,11.48,0,0,1-2.67-1.18c-1.59-.82-3.76-2-6.1-3.45s-4.4-2.81-5.85-3.86A11.24,11.24,0,0,1,323.94,127.55Z" style="fill:#e0e0e0"></path><path d="M318.27,129.73c.93,2.94.25,6.27-.8,9.17a14.32,14.32,0,0,1-5.68,7.11,11.81,11.81,0,0,1-.59-9.09c1-2.94,4.24-5.87,7.07-7.19" style="fill:#ebebeb"></path><path d="M313,140.85a103.33,103.33,0,0,1,5.15-10.65" style="fill:#fff"></path><path d="M318.18,130.2c.16.1-1,2.47-2.42,5.4s-2.55,5.32-2.73,5.25.68-2.59,2.11-5.54S318,130.11,318.18,130.2Z" style="fill:#e0e0e0"></path><rect x="73.35" y="105.29" width="111.6" height="116.34" style="fill:#e0e0e0"></rect><rect x="65.79" y="105.29" width="111.6" height="116.34" style="fill:#455a64"></rect><path d="M177.42,221.66H65.75V105.25H177.42Z" style="fill:#f5f5f5"></path><rect x="80.79" y="120.93" width="81.6" height="85.06" style="fill:#fff"></rect><path d="M80.79,206.55a13.24,13.24,0,0,1-2,2.34c-1.31,1.38-3.14,3.24-5.19,5.26s-3.94,3.82-5.33,5.1a13.12,13.12,0,0,1-2.36,2,13.15,13.15,0,0,1,2-2.34c1.31-1.37,3.14-3.24,5.2-5.26s4-3.84,5.34-5.12A12.93,12.93,0,0,1,80.79,206.55Z" style="fill:#e0e0e0"></path><path d="M162.39,206.34a14.14,14.14,0,0,1,2.34,2c1.37,1.31,3.23,3.14,5.26,5.19s3.82,3.94,5.1,5.33a12.74,12.74,0,0,1,2,2.36,13.34,13.34,0,0,1-2.33-2c-1.37-1.31-3.24-3.14-5.27-5.2s-3.83-3.95-5.11-5.34A12.05,12.05,0,0,1,162.39,206.34Z" style="fill:#e0e0e0"></path><path d="M162.16,121.15a14,14,0,0,1,2-2.34c1.3-1.37,3.13-3.23,5.18-5.26s3.94-3.82,5.34-5.1a12.92,12.92,0,0,1,2.35-2,13.34,13.34,0,0,1-2,2.33c-1.3,1.37-3.14,3.24-5.2,5.27s-3.95,3.83-5.34,5.11A12.05,12.05,0,0,1,162.16,121.15Z" style="fill:#e0e0e0"></path><path d="M80.57,121.36a12.72,12.72,0,0,1-2.34-2C76.85,118,75,116.21,73,114.16s-3.83-3.94-5.11-5.33a13.28,13.28,0,0,1-2-2.36,12.92,12.92,0,0,1,2.33,2c1.38,1.31,3.24,3.14,5.27,5.2s3.83,4,5.11,5.34A13.77,13.77,0,0,1,80.57,121.36Z" style="fill:#e0e0e0"></path><path d="M162.16,206s0-.14,0-.41,0-.68,0-1.19c0-1.06,0-2.6,0-4.59,0-4-.05-9.89-.08-17.33,0-14.9-.09-36.12-.16-61.53l.31.31-81.36.05h0l.36-.36c0,31.22,0,60.42-.05,85l-.31-.31,58.92.16,16.55.08,4.38,0,1.13,0h.39a1.27,1.27,0,0,1-.36,0l-1.09,0-4.32,0-16.48.08-59.12.15h-.31V206c0-24.63,0-53.83,0-85v-.37h.37l81.36,0h.32v.32c-.07,25.49-.12,46.78-.16,61.73,0,7.41-.06,13.25-.08,17.26,0,2,0,3.48,0,4.53,0,.5,0,.87,0,1.16A1.39,1.39,0,0,1,162.16,206Z" style="fill:#e0e0e0"></path><path d="M130.67,181.4a51.24,51.24,0,0,0-7.48-16.77c-1.3-1.91-3-3.89-5.33-4.06a5.28,5.28,0,0,0-4.51,2.36,10,10,0,0,0-1.6,5c-3.94-2-8.83-2.73-12.79-.73s-6.35,7.2-4.35,11.16,7,5.12,11.42,5.82a4.93,4.93,0,0,0-1.23,6.06,7.34,7.34,0,0,0,5.35,3.66,10.61,10.61,0,0,0,6.64-.64,38.4,38.4,0,0,0,13.88-11.87" style="fill:#f5f5f5"></path><path d="M146.41,183.42a8.07,8.07,0,0,1-1.75,0c-1.12-.07-2.74-.2-4.74-.4-4-.4-9.34-1.09-15.54-2.22-6-1.1-11.45-2.36-15.34-3.39-1.94-.51-3.5-1-4.57-1.3a7.66,7.66,0,0,1-1.65-.59,9.16,9.16,0,0,1,1.72.32l4.63,1.07c3.91.9,9.32,2.08,15.34,3.17S136,182,140,182.48l4.71.63A7.66,7.66,0,0,1,146.41,183.42Z" style="fill:#e0e0e0"></path><path d="M117.22,164.12a4.41,4.41,0,0,1,.68,1.12c.38.74.9,1.84,1.47,3.24a50,50,0,0,1,3,11.46l0,.28-.26.11-1,.42A59.86,59.86,0,0,0,110.45,187c-2.59,1.87-4.07,3.19-4.15,3.11a4.94,4.94,0,0,1,1-1c.65-.62,1.62-1.49,2.89-2.49a51.34,51.34,0,0,1,10.8-6.46l1-.42-.22.39a58.89,58.89,0,0,0-2.8-11.39C117.9,165.84,117.12,164.17,117.22,164.12Z" style="fill:#e0e0e0"></path><path d="M107.48,168.87a20.9,20.9,0,0,1,1.72,2.63c1,1.65,2.55,3.87,4.24,6.4l.29.43-.51.12-1,.25c-3.21.74-6.14,1.22-8.25,1.61a20.12,20.12,0,0,1-3.45.51,13.81,13.81,0,0,1,3.34-1c2.09-.52,5-1.08,8.19-1.81l1-.24-.22.55c-1.67-2.53-3.14-4.82-4.06-6.55A10.75,10.75,0,0,1,107.48,168.87Z" style="fill:#e0e0e0"></path><path d="M137.46,159.94a51.21,51.21,0,0,0,5-17.67c.22-2.3.17-4.92-1.49-6.53a5.29,5.29,0,0,0-5-1.08,9.91,9.91,0,0,0-4.44,2.83c-1.72-4.09-5-7.76-9.35-8.76s-9.49,1.45-10.49,5.77,2.12,8.44,5,11.79a4.92,4.92,0,0,0-4.82,3.86,7.3,7.3,0,0,0,1.76,6.24,10.54,10.54,0,0,0,5.5,3.76,38.21,38.21,0,0,0,18.27-.21" style="fill:#f5f5f5"></path><path d="M137.46,137.15a4.43,4.43,0,0,1-.08,1.3c-.11.84-.31,2-.65,3.51a50,50,0,0,1-4,11.15l-.13.25-.28-.05-1-.21a60.32,60.32,0,0,0-12.4-1.07c-3.19.07-5.16.3-5.18.19a4.6,4.6,0,0,1,1.37-.31c.89-.14,2.18-.3,3.79-.39a50.19,50.19,0,0,1,12.56.86l1,.21-.41.19a59.21,59.21,0,0,0,4.21-10.95C137,139,137.35,137.13,137.46,137.15Z" style="fill:#e0e0e0"></path><path d="M127.28,134.07a13.61,13.61,0,0,1,.18,3.06c0,1.89,0,4.53,0,7.48v.47L127,145l-.85-.23c-3-.84-5.77-1.63-7.74-2.25a15.28,15.28,0,0,1-3.16-1.14,14.74,14.74,0,0,1,3.29.64c2,.49,4.77,1.21,7.82,2.05l.85.23-.47.34c.06-3,.16-5.58.26-7.47A13.14,13.14,0,0,1,127.28,134.07Z" style="fill:#e0e0e0"></path><path d="M119.9,136.74a3.17,3.17,0,0,1,.53.46c.4.38.87.85,1.45,1.42a31.55,31.55,0,0,1,2.19,2.34c.84.93,1.78,2,2.73,3.25a98.29,98.29,0,0,1,6.37,9,118,118,0,0,1,11.56,24.43,95,95,0,0,1,2.94,10.65c.16.77.32,1.5.46,2.2s.22,1.36.31,2c.2,1.23.36,2.3.41,3.18s.12,1.47.16,2a2.86,2.86,0,0,1,0,.7,2.21,2.21,0,0,1-.16-.69c-.08-.54-.17-1.2-.29-2s-.3-1.92-.53-3.14c-.12-.62-.24-1.27-.36-2s-.34-1.42-.51-2.17a104.72,104.72,0,0,0-3.08-10.55,132.44,132.44,0,0,0-5.1-12.45,134.1,134.1,0,0,0-6.39-11.84c-2.21-3.5-4.27-6.61-6.21-9.07-.92-1.27-1.83-2.35-2.63-3.3s-1.48-1.79-2.08-2.42l-1.35-1.5C120,137,119.88,136.76,119.9,136.74Z" style="fill:#e0e0e0"></path><rect x="443.3" y="306.76" width="211.77" height="97.67" style="fill:#f5f5f5"></rect><path d="M650,399.83H448.14V311.9H650Zm-200.57-1.32H648.71V313.22H449.46Z" style="fill:#e0e0e0"></path><rect x="655.07" y="306.76" width="51.73" height="97.67" style="fill:#e0e0e0"></rect><path d="M448.8,339.11H649.37a.27.27,0,0,0,0-.53H448.8a.27.27,0,0,0,0,.53Z" style="fill:#e0e0e0"></path><path d="M549.74,338.85a219.46,219.46,0,0,0,.07-26.53.27.27,0,0,0-.54,0,219.46,219.46,0,0,0,.07,26.53.2.2,0,0,0,.4,0Z" style="fill:#e0e0e0"></path><path d="M603.73,325.58a2.74,2.74,0,1,1-2.74-2.73A2.74,2.74,0,0,1,603.73,325.58Z" style="fill:#e0e0e0"></path><path d="M498.47,325.58a2.74,2.74,0,1,1-2.73-2.73A2.73,2.73,0,0,1,498.47,325.58Z" style="fill:#e0e0e0"></path><path d="M551.82,355.86a2.74,2.74,0,1,1-2.73-2.73A2.74,2.74,0,0,1,551.82,355.86Z" style="fill:#e0e0e0"></path><polygon points="468.62 404.43 457.71 465.75 463.85 465.75 483.95 404.43 468.62 404.43" style="fill:#e0e0e0"></polygon><polygon points="640.09 404.43 649.2 465.85 643.07 465.85 624.75 404.43 640.09 404.43" style="fill:#e0e0e0"></polygon><polygon points="681.02 404.43 691.36 465.85 685.22 465.85 665.69 404.43 681.02 404.43" style="fill:#e0e0e0"></polygon><path d="M551.64,383.51a2.74,2.74,0,1,1-2.74-2.74A2.74,2.74,0,0,1,551.64,383.51Z" style="fill:#e0e0e0"></path><path d="M448.8,369.36H649.37a.27.27,0,0,0,0-.54H448.8a.27.27,0,0,0,0,.54Z" style="fill:#e0e0e0"></path><rect x="552.59" y="235.25" width="13.03" height="64.03" transform="translate(823.42 -293.24) rotate(89.7)" style="fill:#e0e0e0"></rect><rect x="552.98" y="260.87" width="20.25" height="71.37" transform="translate(856.68 -268.12) rotate(89.7)" style="fill:#f5f5f5"></rect><path d="M585.1,306.35c-.19,0-.35-4.53-.35-10.13s.16-10.12.35-10.12.34,4.53.34,10.12S585.29,306.35,585.1,306.35Z" style="fill:#e0e0e0"></path><path d="M588.1,306.35c-.2,0-.35-4.53-.35-10.13s.15-10.12.35-10.12.34,4.53.34,10.12S588.29,306.35,588.1,306.35Z" style="fill:#e0e0e0"></path><path d="M538.22,306.35c-.19,0-.35-4.53-.35-10.13s.16-10.12.35-10.12.34,4.53.34,10.12S538.41,306.35,538.22,306.35Z" style="fill:#e0e0e0"></path><path d="M541.22,306.35c-.19,0-.35-4.53-.35-10.13s.16-10.12.35-10.12.34,4.53.34,10.12S541.41,306.35,541.22,306.35Z" style="fill:#e0e0e0"></path><path d="M547.76,296.55c0-.19,7.2-.35,16.08-.35s16.08.16,16.08.35-7.2.35-16.08.35S547.76,296.74,547.76,296.55Z" style="fill:#e0e0e0"></path><rect x="575.06" y="235.81" width="13.03" height="88.06" transform="translate(858.34 -303.21) rotate(89.7)" style="fill:#ebebeb"></rect><path d="M613,284.51a4.22,4.22,0,1,1,4.16-4.22A4.19,4.19,0,0,1,613,284.51Z" style="fill:#e0e0e0"></path><rect x="570.81" y="250.82" width="2.61" height="58.95" transform="translate(852.41 -291.83) rotate(90)" style="fill:#e0e0e0"></rect></g><g id="freepik--Plant--inject-9"><rect x="472.14" y="161.26" width="177.95" height="9.16" style="fill:#455a64"></rect><path d="M626.05,78s0-.09-.11-.25-.23-.43-.39-.72c-.35-.62-.9-1.52-1.68-2.63a28.26,28.26,0,0,0-8.32-7.86,20.31,20.31,0,0,0-7.47-2.75,18.51,18.51,0,0,0-9.07,1,14.67,14.67,0,0,0-7.76,6.35c-1.79,3.11-2.36,6.77-3.4,10.26a18.66,18.66,0,0,1-2.17,4.9A14.8,14.8,0,0,1,582,89.93c-1.38,1-2.84,1.95-4.15,3a18,18,0,0,0-3.38,3.66,22.57,22.57,0,0,0-3.46,8.45,30.37,30.37,0,0,0-.46,7.94,60.58,60.58,0,0,0,2,11.29c.35,1.31.64,2.32.84,3a5.79,5.79,0,0,0,.34,1,7.77,7.77,0,0,0-.22-1.07l-.72-3A65.18,65.18,0,0,1,571,113a30,30,0,0,1,.53-7.81,22.11,22.11,0,0,1,3.42-8.22,17.29,17.29,0,0,1,3.28-3.52c1.28-1,2.72-2,4.14-3a15.48,15.48,0,0,0,3.84-3.78,19.31,19.31,0,0,0,2.25-5.06c1.06-3.56,1.63-7.16,3.33-10.14a14.16,14.16,0,0,1,7.43-6.12,18.15,18.15,0,0,1,8.8-1A20.14,20.14,0,0,1,615.32,67a29,29,0,0,1,8.35,7.63c.81,1.08,1.39,2,1.78,2.55A7.64,7.64,0,0,0,626.05,78Z" style="fill:#e0e0e0"></path><path d="M580.36,90.85c1-.89,1.43-.27,2.73,0a8,8,0,0,1,3.49,1.74A14.72,14.72,0,0,1,591.35,108,11.49,11.49,0,0,1,580.8,90.75" style="fill:#e0e0e0"></path><path d="M619.89,72.86c.48-1.22,1.17-.86,2.44-1.2a7.93,7.93,0,0,1,3.9.07,14.72,14.72,0,0,1,10.95,11.88,11.48,11.48,0,0,1-16.94-11" style="fill:#e0e0e0"></path><path d="M571.66,115.2a13.24,13.24,0,0,1,20.83,1,16.32,16.32,0,0,1-10.8,4.26,16.74,16.74,0,0,1-10.89-4.4" style="fill:#e0e0e0"></path><path d="M574.9,97a13.44,13.44,0,0,1-13.56-16,12.06,12.06,0,0,1,14,15.89" style="fill:#e0e0e0"></path><path d="M588.81,75.64A13.42,13.42,0,0,1,570.7,65a12.05,12.05,0,0,1,18.49,10.34" style="fill:#e0e0e0"></path><path d="M593.48,68.66A13.44,13.44,0,0,1,611.6,79.27a12.05,12.05,0,0,1-18.5-10.33" style="fill:#e0e0e0"></path><path d="M599,64.91a13.43,13.43,0,0,1-7.15-19.75,12.06,12.06,0,0,1,7.61,19.78" style="fill:#e0e0e0"></path><path d="M613.28,65.59a13.43,13.43,0,0,1,11-17.91A12.06,12.06,0,0,1,613.55,66" style="fill:#e0e0e0"></path><polyline points="555.86 161.88 548.27 114.24 606.43 114.95 600.69 161.25" style="fill:#263238"></polyline><path d="M581,105.54a9.93,9.93,0,0,0,9.65.82A10.48,10.48,0,0,0,595.89,98a11.87,11.87,0,0,0-9.64-.49,11.73,11.73,0,0,0-6.41,7.17" style="fill:#9dc08b"></path><path d="M607.54,115.8a9.93,9.93,0,0,0,9.65.82,10.46,10.46,0,0,0,5.28-8.35,11.16,11.16,0,0,0-16,6.68" style="fill:#9dc08b"></path><path d="M592.62,92.89a9.9,9.9,0,0,0,7.61,6,10.44,10.44,0,0,0,9-4.07,11.89,11.89,0,0,0-7.78-5.71,11.75,11.75,0,0,0-9.29,2.47" style="fill:#9dc08b"></path><path d="M602.32,104.76a9.92,9.92,0,0,0-8.68,4.3,10.43,10.43,0,0,0-.2,9.87,11.88,11.88,0,0,0,8.5-4.57,11.74,11.74,0,0,0,1.77-9.45" style="fill:#9dc08b"></path><path d="M611.69,123.51a9.91,9.91,0,0,0,.23,9.68,10.41,10.41,0,0,0,8.86,4.35,11.83,11.83,0,0,0-.55-9.63c-1.52-2.78-4.28-4.15-7.73-4.94" style="fill:#9dc08b"></path><path d="M627.15,125.71a7.49,7.49,0,0,0-2.3-1.46,9.8,9.8,0,0,0-3.16-.55,36.24,36.24,0,0,0-4.29.25,12.37,12.37,0,0,1-5.28-.46,8.09,8.09,0,0,1-4.37-4.21,24.44,24.44,0,0,1-1.88-6.43,18.38,18.38,0,0,0-2.24-6.61,23.25,23.25,0,0,0-4.91-5A23.92,23.92,0,0,1,594,96.47a15.75,15.75,0,0,1-2.34-11,15.36,15.36,0,0,1,2.85-7,11.45,11.45,0,0,1,1.4-1.53c.34-.33.53-.49.55-.47A3.6,3.6,0,0,1,596,77a13.91,13.91,0,0,0-1.29,1.59,15.64,15.64,0,0,0-2.61,7,15.39,15.39,0,0,0,2.38,10.56,23.54,23.54,0,0,0,4.62,4.63,23.44,23.44,0,0,1,5,5.13,18.84,18.84,0,0,1,2.32,6.83,24.24,24.24,0,0,0,1.79,6.29,7.62,7.62,0,0,0,4,4,12.23,12.23,0,0,0,5.07.49,37.17,37.17,0,0,1,4.34-.16,10,10,0,0,1,3.23.68,5.6,5.6,0,0,1,1.75,1.13,3.47,3.47,0,0,1,.36.41Z" style="fill:#9dc08b"></path><path d="M627.15,125.71a7.49,7.49,0,0,0-2.3-1.46,9.8,9.8,0,0,0-3.16-.55,36.24,36.24,0,0,0-4.29.25,12.37,12.37,0,0,1-5.28-.46,8.09,8.09,0,0,1-4.37-4.21,24.44,24.44,0,0,1-1.88-6.43,18.38,18.38,0,0,0-2.24-6.61,23.25,23.25,0,0,0-4.91-5A23.92,23.92,0,0,1,594,96.47a15.75,15.75,0,0,1-2.34-11,15.36,15.36,0,0,1,2.85-7,11.45,11.45,0,0,1,1.4-1.53c.34-.33.53-.49.55-.47A3.6,3.6,0,0,1,596,77a13.91,13.91,0,0,0-1.29,1.59,15.64,15.64,0,0,0-2.61,7,15.39,15.39,0,0,0,2.38,10.56,23.54,23.54,0,0,0,4.62,4.63,23.44,23.44,0,0,1,5,5.13,18.84,18.84,0,0,1,2.32,6.83,24.24,24.24,0,0,0,1.79,6.29,7.62,7.62,0,0,0,4,4,12.23,12.23,0,0,0,5.07.49,37.17,37.17,0,0,1,4.34-.16,10,10,0,0,1,3.23.68,5.6,5.6,0,0,1,1.75,1.13,3.47,3.47,0,0,1,.36.41Z" style="fill:#9dc08b"></path><path d="M516.12,130.59a14.71,14.71,0,0,0-19.91-14.49,24.52,24.52,0,0,0,19.39,14.31" style="fill:#9dc08b"></path><path d="M512.28,132.62c-2.84,3.12-2.66,8.15-.63,11.85s5.54,6.34,9.05,8.69a19.09,19.09,0,0,0-8.23-21.67" style="fill:#9dc08b"></path><path d="M526.06,118a17,17,0,0,0,19.29,15.12c-1.1-4.57-2.93-9.18-6.46-12.28s-9.1-4.26-13-1.64" style="fill:#9dc08b"></path><path d="M526,113.31c-.72-4.16-4.82-7.18-9-7.57s-8.36,1.4-11.73,4a15.26,15.26,0,0,0,20.79,2" style="fill:#9dc08b"></path><path d="M504.3,148.71c-4,3.41-5,9.48-3.33,14.46s5.54,9,9.91,11.87c1.68-4.94,2.73-10.23,1.85-15.37s-4-10.11-8.76-12.2" style="fill:#9dc08b"></path><path d="M525.32,101.64a12.28,12.28,0,0,1,19.44-1.14,10.61,10.61,0,0,1-19.14.49" style="fill:#9dc08b"></path><path d="M530.21,89.64a16,16,0,0,1-20.34-12.48,36.79,36.79,0,0,1,9.61.14A15.68,15.68,0,0,1,528,81.49a8.44,8.44,0,0,1,2.22,8.15" style="fill:#9dc08b"></path><path d="M539.44,86.53a13,13,0,0,1-.08-20.12,27.3,27.3,0,0,1,5.7,12.16,10.19,10.19,0,0,1,0,5,4.64,4.64,0,0,1-3.52,3.29" style="fill:#9dc08b"></path><g style="opacity:0.4"><path d="M516.12,130.59a14.71,14.71,0,0,0-19.91-14.49,24.52,24.52,0,0,0,19.39,14.31"></path></g><g style="opacity:0.4"><path d="M512.28,132.62c-2.84,3.12-2.66,8.15-.63,11.85s5.54,6.34,9.05,8.69a19.09,19.09,0,0,0-8.23-21.67"></path></g><g style="opacity:0.4"><path d="M526.06,118a17,17,0,0,0,19.29,15.12c-1.1-4.57-2.93-9.18-6.46-12.28s-9.1-4.26-13-1.64"></path></g><g style="opacity:0.4"><path d="M526,113.31c-.72-4.16-4.82-7.18-9-7.57s-8.36,1.4-11.73,4a15.26,15.26,0,0,0,20.79,2"></path></g><g style="opacity:0.4"><path d="M504.3,148.71c-4,3.41-5,9.48-3.33,14.46s5.54,9,9.91,11.87c1.68-4.94,2.73-10.23,1.85-15.37s-4-10.11-8.76-12.2"></path></g><g style="opacity:0.4"><path d="M525.32,101.64a12.28,12.28,0,0,1,19.44-1.14,10.61,10.61,0,0,1-19.14.49"></path></g><g style="opacity:0.4"><path d="M530.21,89.64a16,16,0,0,1-20.34-12.48,36.79,36.79,0,0,1,9.61.14A15.68,15.68,0,0,1,528,81.49a8.44,8.44,0,0,1,2.22,8.15"></path></g><g style="opacity:0.4"><path d="M539.44,86.53a13,13,0,0,1-.08-20.12,27.3,27.3,0,0,1,5.7,12.16,10.19,10.19,0,0,1,0,5,4.64,4.64,0,0,1-3.52,3.29"></path></g><path d="M555.39,115.77a1.3,1.3,0,0,1,0-.32c0-.26,0-.57.06-1,.06-.84.13-2.08.16-3.68a32.81,32.81,0,0,0-2.16-13.22,20.26,20.26,0,0,0-5.31-7.47,14.14,14.14,0,0,0-9.67-3.56A12,12,0,0,0,533,87.92a10.94,10.94,0,0,0-4.22,4c-2.1,3.48-2.63,7.84-2.44,12.15s.77,8.62.29,12.79a19.64,19.64,0,0,1-1.59,5.92,12.46,12.46,0,0,1-3.58,4.69,17.82,17.82,0,0,1-5,2.55,25.6,25.6,0,0,0-4.7,2.13,17,17,0,0,0-6.17,6.72,16.22,16.22,0,0,0-1.78,7.35,17.16,17.16,0,0,0,.93,5.69,21.05,21.05,0,0,0,2.2,4.42s-.08-.08-.21-.25a8,8,0,0,1-.56-.78,15.36,15.36,0,0,1-1.66-3.31,17,17,0,0,1-1.05-5.76,16.51,16.51,0,0,1,1.73-7.56,17.37,17.37,0,0,1,6.29-7c2.88-1.92,6.67-2.39,9.6-4.69s4.46-6.23,4.91-10.24-.15-8.31-.3-12.69.33-8.86,2.55-12.5a11.39,11.39,0,0,1,4.46-4.23A12.59,12.59,0,0,1,538.45,86a14.68,14.68,0,0,1,10,3.74,20.44,20.44,0,0,1,5.38,7.7,27.2,27.2,0,0,1,1.83,7.54,40.6,40.6,0,0,1,.17,5.86c-.07,1.6-.19,2.84-.28,3.68-.05.39-.09.7-.12,1S555.41,115.78,555.39,115.77Z" style="fill:#9dc08b"></path><g style="opacity:0.4"><path d="M555.39,115.77a1.3,1.3,0,0,1,0-.32c0-.26,0-.57.06-1,.06-.84.13-2.08.16-3.68a32.81,32.81,0,0,0-2.16-13.22,20.26,20.26,0,0,0-5.31-7.47,14.14,14.14,0,0,0-9.67-3.56A12,12,0,0,0,533,87.92a10.94,10.94,0,0,0-4.22,4c-2.1,3.48-2.63,7.84-2.44,12.15s.77,8.62.29,12.79a19.64,19.64,0,0,1-1.59,5.92,12.46,12.46,0,0,1-3.58,4.69,17.82,17.82,0,0,1-5,2.55,25.6,25.6,0,0,0-4.7,2.13,17,17,0,0,0-6.17,6.72,16.22,16.22,0,0,0-1.78,7.35,17.16,17.16,0,0,0,.93,5.69,21.05,21.05,0,0,0,2.2,4.42s-.08-.08-.21-.25a8,8,0,0,1-.56-.78,15.36,15.36,0,0,1-1.66-3.31,17,17,0,0,1-1.05-5.76,16.51,16.51,0,0,1,1.73-7.56,17.37,17.37,0,0,1,6.29-7c2.88-1.92,6.67-2.39,9.6-4.69s4.46-6.23,4.91-10.24-.15-8.31-.3-12.69.33-8.86,2.55-12.5a11.39,11.39,0,0,1,4.46-4.23A12.59,12.59,0,0,1,538.45,86a14.68,14.68,0,0,1,10,3.74,20.44,20.44,0,0,1,5.38,7.7,27.2,27.2,0,0,1,1.83,7.54,40.6,40.6,0,0,1,.17,5.86c-.07,1.6-.19,2.84-.28,3.68-.05.39-.09.7-.12,1S555.41,115.78,555.39,115.77Z"></path></g><path d="M640.08,105.38a12.66,12.66,0,0,0,.87-4.26,10.77,10.77,0,0,0-1.13-4.92,10.54,10.54,0,0,0-8.48-5.59,11.91,11.91,0,0,0-4.18.49c-2.85.75-5.67,2.37-9,3a10.76,10.76,0,0,1-5.25-.13,7.93,7.93,0,0,1-4.27-3.41c-2-3.15-2.6-7.11-5.05-10a10.06,10.06,0,0,0-4.6-3,12.89,12.89,0,0,0-5.36-.55,13.75,13.75,0,0,0-8.93,4.65,20.88,20.88,0,0,0-4.43,8.2,24.5,24.5,0,0,0-1,8.12,88.08,88.08,0,0,0,1.51,11.88c.23,1.36.41,2.43.55,3.22.05.34.09.61.13.84a1.27,1.27,0,0,1,0,.29,1.09,1.09,0,0,1-.09-.28c-.05-.22-.11-.49-.18-.83-.17-.78-.39-1.85-.68-3.19A80.89,80.89,0,0,1,578.79,98a25.21,25.21,0,0,1,.93-8.29,21.33,21.33,0,0,1,4.51-8.44A15.83,15.83,0,0,1,588.31,78a14.08,14.08,0,0,1,10.84-1A10.67,10.67,0,0,1,604,80.18c2.59,3.11,3.15,7.09,5.09,10.08a7.25,7.25,0,0,0,3.94,3.17,10.13,10.13,0,0,0,5,.14c3.24-.63,6.08-2.22,9-3a12.78,12.78,0,0,1,4.35-.47,10.75,10.75,0,0,1,3.9,1.1A10.54,10.54,0,0,1,640.13,96a10.74,10.74,0,0,1,1.06,5.08,10.17,10.17,0,0,1-.62,3.22A5.72,5.72,0,0,1,640.08,105.38Z" style="fill:#9dc08b"></path><path d="M606.06,84.27a11.31,11.31,0,0,0,10.38.69,10.47,10.47,0,0,0,5.28-8.35,11.87,11.87,0,0,0-9.64-.49,11.73,11.73,0,0,0-6.41,7.17" style="fill:#9dc08b"></path><path d="M617.09,94.28a11.32,11.32,0,0,0,4.81,9.21,10.46,10.46,0,0,0,9.88.16,11.85,11.85,0,0,0-4.6-8.48,11.71,11.71,0,0,0-9.45-1.74" style="fill:#9dc08b"></path><path d="M636.22,92.06a11.29,11.29,0,0,0,10.38-.43A10.43,10.43,0,0,0,651,82.77a11.16,11.16,0,0,0-15.24,8.35" style="fill:#9dc08b"></path><path d="M590,77.65c-2.79-2.41-4.65-6.62-4.12-9.79a10.45,10.45,0,0,1,6.41-7.51,11.15,11.15,0,0,1-1.64,17.3" style="fill:#9dc08b"></path><path d="M515.31,64a1.15,1.15,0,0,1,.12-.26l.38-.71c.36-.62.9-1.52,1.69-2.63a28.27,28.27,0,0,1,8.32-7.87,20.48,20.48,0,0,1,7.47-2.74,18.5,18.5,0,0,1,9.07,1,14.74,14.74,0,0,1,7.76,6.36c1.78,3.11,2.36,6.77,3.4,10.26a18.45,18.45,0,0,0,2.17,4.89,14.8,14.8,0,0,0,3.68,3.64c1.39,1,2.84,1.94,4.16,3a17.9,17.9,0,0,1,3.37,3.66A22.36,22.36,0,0,1,570.36,91a30,30,0,0,1,.47,7.94,61.56,61.56,0,0,1-2,11.3c-.35,1.3-.64,2.31-.84,3a6.57,6.57,0,0,1-.34,1,8.22,8.22,0,0,1,.22-1.06c.18-.75.41-1.76.72-3a65.18,65.18,0,0,0,1.82-11.26,30,30,0,0,0-.53-7.81,22,22,0,0,0-3.42-8.22,17.29,17.29,0,0,0-3.28-3.52c-1.28-1-2.73-2-4.14-3a15.43,15.43,0,0,1-3.84-3.77,19.23,19.23,0,0,1-2.25-5.07c-1.06-3.55-1.63-7.16-3.34-10.14a14.15,14.15,0,0,0-7.43-6.11,18,18,0,0,0-8.79-1,20,20,0,0,0-7.31,2.61,29,29,0,0,0-8.35,7.62c-.81,1.08-1.39,2-1.78,2.55A6.6,6.6,0,0,1,515.31,64Z" style="fill:#9dc08b"></path><path d="M561,76.77c-1-.9-1.43-.27-2.72,0a8.21,8.21,0,0,0-3.49,1.74A14.72,14.72,0,0,0,550,93.91a11.47,11.47,0,0,0,10.54-17.24" style="fill:#9dc08b"></path><path d="M521.48,58.78c-.48-1.22-1.17-.86-2.44-1.21a8.17,8.17,0,0,0-3.9.07,14.72,14.72,0,0,0-10.95,11.89,11.48,11.48,0,0,0,16.94-11" style="fill:#9dc08b"></path><path d="M569.71,101.12a13.24,13.24,0,0,0-20.83,1,16.4,16.4,0,0,0,10.8,4.26,16.71,16.71,0,0,0,10.88-4.4" style="fill:#9dc08b"></path><path d="M566.46,82.93a13.43,13.43,0,0,0,13.57-16A12,12,0,0,0,566,82.8" style="fill:#9dc08b"></path><path d="M552.55,61.56A13.42,13.42,0,0,0,570.67,51a12.05,12.05,0,0,0-18.49,10.34" style="fill:#9dc08b"></path><path d="M547.89,54.58a13.43,13.43,0,0,0-18.12,10.61,12.06,12.06,0,0,0,18.5-10.34" style="fill:#9dc08b"></path><path d="M542.33,50.82a13.42,13.42,0,0,0,7.15-19.74,12,12,0,0,0-7.61,19.77" style="fill:#9dc08b"></path><path d="M528.09,51.5a13.43,13.43,0,0,0-11-17.9,12.05,12.05,0,0,0,10.7,18.28" style="fill:#9dc08b"></path><polygon points="547.53 156.36 551.98 161.88 606.71 161.88 610.44 156.36 547.53 156.36" style="fill:#263238"></polygon><path d="M609.24,156.31c0,.17-13.45.31-30,.31s-30-.14-30-.31,13.45-.32,30-.32S609.24,156.13,609.24,156.31Z" style="fill:#455a64"></path><path d="M603.09,135.53a2.91,2.91,0,0,1-.35.44,10.55,10.55,0,0,1-1.11,1.18,20.82,20.82,0,0,1-4.89,3.39,21.49,21.49,0,0,1-8.54,2.19,20.52,20.52,0,0,1-5.23-.44,31.36,31.36,0,0,1-5.33-1.76c-3.53-1.5-6.73-3.22-9.86-4.21a16.91,16.91,0,0,0-8.51-.82,11.08,11.08,0,0,0-5.23,2.42c-1,.91-1.43,1.6-1.49,1.56s.08-.19.28-.5a7.56,7.56,0,0,1,1-1.24,10.8,10.8,0,0,1,5.3-2.68,17.13,17.13,0,0,1,8.78.71c3.2,1,6.44,2.69,9.93,4.18a31.55,31.55,0,0,0,5.21,1.74,20.24,20.24,0,0,0,5.07.46,21.74,21.74,0,0,0,8.38-2A26.33,26.33,0,0,0,603.09,135.53Z" style="fill:#455a64"></path><path d="M603.63,131.25s-.11.16-.38.43a15.18,15.18,0,0,1-1.19,1.09,22.44,22.44,0,0,1-5.07,3.14,23.94,23.94,0,0,1-8.6,2.06,23.68,23.68,0,0,1-5.25-.36,34.88,34.88,0,0,1-5.41-1.53c-3.61-1.31-6.92-2.81-10.09-3.7a20.14,20.14,0,0,0-8.59-.78,12.91,12.91,0,0,0-5.42,2.07c-1.13.8-1.63,1.41-1.68,1.36s.1-.17.34-.45a8.74,8.74,0,0,1,1.2-1.1,12.35,12.35,0,0,1,5.49-2.32,20.12,20.12,0,0,1,8.81.66c3.24.87,6.58,2.37,10.16,3.67a36.7,36.7,0,0,0,5.31,1.52,23.62,23.62,0,0,0,5.1.38,24.16,24.16,0,0,0,8.45-1.89A29.65,29.65,0,0,0,603.63,131.25Z" style="fill:#455a64"></path><rect x="520.34" y="168.01" width="5.34" height="14.89" style="fill:#455a64"></rect><rect x="596.56" y="168.01" width="5.34" height="14.89" style="fill:#455a64"></rect></g><g id="freepik--box-2--inject-9"><rect x="460.7" y="371.74" width="172.69" height="94.62" style="fill:#9dc08b"></rect><g style="opacity:0.30000000000000004"><rect x="460.7" y="371.74" width="172.69" height="94.62"></rect></g><rect x="418.45" y="371.74" width="124.54" height="94.62" style="fill:#9dc08b"></rect><rect x="446.64" y="414.28" width="84.09" height="30.27" transform="translate(-73.72 102.44) rotate(-11.13)" style="fill:#fafafa"></rect><path d="M532.86,436.15s-.05-.19-.13-.53-.18-.87-.32-1.53c-.28-1.36-.68-3.33-1.2-5.88l-4.38-21.72.22.14L444.57,423h0l.22-.33c2,10.36,4,20.38,5.84,29.7l-.32-.21,59.06-11.49,17.23-3.32,4.64-.88,1.2-.22c.28,0,.43-.06.43-.06l-.39.09-1.17.25-4.56.93-17.15,3.45L450.4,452.65l-.26.05-.05-.26c-1.84-9.33-3.81-19.35-5.85-29.7l-.06-.27.28-.06h0L527,406.27l.18,0,0,.18c1.78,9.29,3.21,16.74,4.2,21.88.48,2.53.85,4.5,1.1,5.85.12.65.21,1.15.28,1.51S532.86,436.15,532.86,436.15Z" style="fill:#263238"></path><rect x="448.05" y="416.58" width="4.6" height="8.91" transform="translate(-104.04 151.34) rotate(-17.13)" style="fill:#e0e0e0"></rect><rect x="524.74" y="432.9" width="4.6" height="8.91" transform="translate(-105.44 174.63) rotate(-17.13)" style="fill:#e0e0e0"></rect><rect x="519.73" y="402.29" width="4.6" height="8.91" transform="translate(22.95 -27.86) rotate(3.13)" style="fill:#e0e0e0"></rect><rect x="453.81" y="446.76" width="4.6" height="8.91" transform="translate(25.29 -24.21) rotate(3.13)" style="fill:#e0e0e0"></rect><path d="M458,430.73l4.11-.83c3.06-.61,5.52.85,6.09,3.68s-1.14,5.12-4.19,5.74l-4.12.83Zm5.63,7.12a3.3,3.3,0,1,0-1.3-6.45l-2.28.46,1.29,6.45Z" style="fill:#263238"></path><path d="M469.4,433.34a5.18,5.18,0,1,1,6.05,3.82A4.92,4.92,0,0,1,469.4,433.34Zm8.38-1.69a3.37,3.37,0,1,0-2.64,4A3.27,3.27,0,0,0,477.78,431.65Z" style="fill:#263238"></path><path d="M488.82,424.53l1.9,9.42-1.44.29-6.48-5.33,1.29,6.37-1.74.35-1.89-9.41,1.44-.29,6.47,5.33-1.28-6.38Z" style="fill:#263238"></path><path d="M498.91,430l-4.7,1-.49,2.36-1.8.36,2.34-10.26,1.72-.35,6.14,8.56-1.83.37Zm-.85-1.26-2.6-3.75-.94,4.47Z" style="fill:#263238"></path><path d="M503.16,423.18l-3.12.63-.29-1.48,8-1.61.3,1.48-3.12.63,1.6,7.94-1.75.35Z" style="fill:#263238"></path><path d="M517.72,427l.29,1.46L511,429.87l-1.89-9.41,6.87-1.38.29,1.46-5.12,1,.49,2.45,4.55-.91.29,1.44-4.55.91.52,2.6Z" style="fill:#263238"></path><polygon points="416.26 371.75 389.47 410.28 517.13 410.28 544.21 371.75 416.26 371.75" style="fill:#9dc08b"></polygon><g style="opacity:0.30000000000000004"><polygon points="416.26 371.75 389.47 410.28 517.13 410.28 544.21 371.75 416.26 371.75"></polygon></g><path d="M544.21,371.74a1.1,1.1,0,0,1-.11.2l-.36.54c-.34.49-.82,1.19-1.43,2.1-1.28,1.84-3.13,4.51-5.47,7.9l-19.52,27.94-.07.09h-.12l-40.27,0-61.8-.07-18.72-.09-5.09,0-1.33,0-.45,0a4,4,0,0,1,.45,0l1.33,0,5.09-.05,18.72-.08,61.8-.08,40.27,0-.18.1,19.66-27.83,5.58-7.83,1.49-2.05.39-.53A1.56,1.56,0,0,1,544.21,371.74Z" style="fill:#263238"></path><polygon points="633.38 371.75 661.91 406.74 563.54 406.74 542.99 371.75 633.38 371.75" style="fill:#9dc08b"></polygon></g><g id="freepik--box-1--inject-9"><path d="M183.67,319.64V306.36a1.59,1.59,0,0,1,1.59-1.59h.59a1.59,1.59,0,0,1,1.59,1.59V307h9.85v3.37h-9.72v9.29Z" style="fill:#263238"></path><rect x="172.58" y="322.32" width="26.08" height="42.17" rx="2.29" style="fill:#455a64"></rect><path d="M180.56,317h10.72a1.05,1.05,0,0,1,1.05,1.05v4.3a0,0,0,0,1,0,0H179.5a0,0,0,0,1,0,0V318A1.05,1.05,0,0,1,180.56,317Z" style="fill:#455a64"></path><rect x="187.36" y="328.88" width="11.3" height="27.9" style="fill:#fafafa"></rect><path d="M192.33,322.18c0,.22-2.94.4-6.57.4s-6.58-.18-6.58-.4,2.94-.41,6.58-.41S192.33,322,192.33,322.18Z" style="fill:#263238"></path><path d="M174.18,350.06c-.22,0-.41-5.51-.41-12.29s.19-12.3.41-12.3.41,5.51.41,12.3S174.41,350.06,174.18,350.06Z" style="fill:#fafafa"></path><rect x="181.58" y="344.32" width="37.56" height="60.22" transform="translate(-4.5 2.44) rotate(-0.69)" style="fill:#fafafa"></rect><path d="M219.5,404.34l-37.56.45a0,0,0,0,1,0,0l-.72-60.21a0,0,0,0,1,0,0l37.55-.45s0,0,0,0l.73,60.22A0,0,0,0,1,219.5,404.34Zm-37.53.39,37.5-.45-.72-60.16-37.51.45Z" style="fill:#263238"></path><path d="M218.78,344.09c0,1.67-8.38,3.12-18.75,3.25s-18.79-1.13-18.81-2.79,8.37-3.12,18.74-3.25S218.76,342.43,218.78,344.09Z" style="fill:#f5f5f5"></path><path d="M206.91,343.92c0,.62-3.09,1.15-6.9,1.2s-6.92-.42-6.93-1,3.08-1.15,6.9-1.2S206.9,343.31,206.91,343.92Z" style="fill:#263238"></path><path d="M208.22,404.29c-.15,0-.44-12.77-.63-28.52s-.21-28.52-.06-28.52.44,12.76.63,28.51S208.38,404.28,208.22,404.29Z" style="fill:#263238"></path><path d="M131.88,375.51c.88-11.89,4.14-42.11,6.59-53.78.73-3.49,1.57-7.07,3.61-10s5.54-5.12,9.06-4.58c3.15.49,5.68,3,7,6a21.11,21.11,0,0,1,1.62,9.36c-.6,14.43-1.85,30.6-1.84,44" style="fill:#455a64"></path><path d="M153.74,347.18a24.63,24.63,0,0,1-2.39.76,50.31,50.31,0,0,0-5.65,2.14,51.14,51.14,0,0,0-5.33,2.84c-1.32.8-2.11,1.35-2.14,1.3s.16-.18.51-.45.85-.64,1.49-1.08a37.53,37.53,0,0,1,11-5c.76-.2,1.37-.34,1.8-.42A2.79,2.79,0,0,1,153.74,347.18Z" style="fill:#263238"></path><path d="M154.81,333.45c0,.06-1,.27-2.51.75a34.23,34.23,0,0,0-11.12,5.85c-1.27,1-2,1.69-2,1.64s.14-.21.46-.53a17.11,17.11,0,0,1,1.42-1.32,29.22,29.22,0,0,1,11.2-5.89c.79-.21,1.44-.35,1.89-.42A2.18,2.18,0,0,1,154.81,333.45Z" style="fill:#263238"></path><path d="M153.36,322.4c0,.06-.76.1-2,.32a17.58,17.58,0,0,0-4.53,1.51,17.15,17.15,0,0,0-3.94,2.71c-.9.83-1.39,1.42-1.44,1.38s.08-.18.29-.46a9.42,9.42,0,0,1,1-1.11,15,15,0,0,1,8.61-4.29,9.94,9.94,0,0,1,1.47-.1C153.17,322.36,153.36,322.37,153.36,322.4Z" style="fill:#263238"></path><path d="M141.28,356.15a.35.35,0,0,0,0,.06v41.3c0,1.81-1.46,3.69-4.14,5.1a25,25,0,0,1-11.47,2.4h-.06c-9.78,0-15.62-3.86-15.62-7.5v-41.3a.35.35,0,0,0,0-.06s0,0,0-.08c0-4,3-8.25,6-12.42,2-2.78,2.49-6.78,2.58-9.14,0-.28,0-.53,0-.76h-.27a2.18,2.18,0,0,1-2.33-2V330a2.18,2.18,0,0,1,2.33-2H133a2.37,2.37,0,0,1,2.16,1.22,1.94,1.94,0,0,1,.18.79v1.74a2.18,2.18,0,0,1-2.34,2h-.27c0,.23,0,.48,0,.76.1,2.36.58,6.36,2.59,9.14,3,4.17,6,8.38,6,12.42C141.29,356.1,141.28,356.13,141.28,356.15Z" style="fill:#fafafa"></path><path d="M141.28,356.15s0-.14,0-.42a9.07,9.07,0,0,0-.16-1.24,15.93,15.93,0,0,0-1.7-4.48,61.44,61.44,0,0,0-4.23-6.4,13.09,13.09,0,0,1-1.91-4.45,23.77,23.77,0,0,1-.67-5.41v-.12h.12a2.64,2.64,0,0,0,1.56-.36,1.85,1.85,0,0,0,.9-1.29c0-.55,0-1.18,0-1.77a1.77,1.77,0,0,0-.63-1.53,2.44,2.44,0,0,0-1.66-.54H118.53a2.4,2.4,0,0,0-1.9.68,1.7,1.7,0,0,0-.46.89,9.76,9.76,0,0,0,0,1.1c0,.37,0,.78,0,1.12a1.74,1.74,0,0,0,.45.92,2.43,2.43,0,0,0,2,.72h.17v.17a26,26,0,0,1-.55,5,13.78,13.78,0,0,1-2,4.82c-1,1.43-2,2.86-3,4.38a23.46,23.46,0,0,0-2.44,4.82,11,11,0,0,0-.58,2.66c0,.9,0,1.85,0,2.79v37.69a11.79,11.79,0,0,0,.11,2.4,4.65,4.65,0,0,0,1.12,2,11.07,11.07,0,0,0,3.86,2.62,22,22,0,0,0,4.44,1.33,30.24,30.24,0,0,0,4.51.51,31.23,31.23,0,0,0,8.7-.79,19.08,19.08,0,0,0,3.92-1.43,9.94,9.94,0,0,0,3.2-2.4,5,5,0,0,0,.94-1.67,6.61,6.61,0,0,0,.15-1.9c0-1.29,0-2.56,0-3.8q0-3.74,0-7.16c0-9.1,0-16.47.06-21.58s.06-7.92.06-7.92a1.76,1.76,0,0,1,0,.52c0,.36,0,.86,0,1.53,0,1.35,0,3.33,0,5.87,0,5.11,0,12.48.06,21.58q0,3.42,0,7.16c0,1.24,0,2.51,0,3.8v1a3.87,3.87,0,0,1-.16,1,5.14,5.14,0,0,1-1,1.78,10.34,10.34,0,0,1-3.28,2.49,19.38,19.38,0,0,1-4,1.45,30.8,30.8,0,0,1-8.79.82,29.87,29.87,0,0,1-4.57-.51,22.19,22.19,0,0,1-4.51-1.34,11.35,11.35,0,0,1-4-2.72,5,5,0,0,1-1.21-2.17,13,13,0,0,1-.12-2.48V358.23c0-1,0-1.86,0-2.82a11.55,11.55,0,0,1,.61-2.75,23.37,23.37,0,0,1,2.47-4.89c1-1.53,2-3,3-4.39a13.55,13.55,0,0,0,1.91-4.7,24.42,24.42,0,0,0,.55-4.93l.17.17a2.79,2.79,0,0,1-2.23-.82,2,2,0,0,1-.52-1.11c0-.42,0-.77,0-1.16a11.34,11.34,0,0,1,0-1.15,2,2,0,0,1,.55-1.07,2.76,2.76,0,0,1,2.13-.77h14.36a2.71,2.71,0,0,1,1.83.62,2,2,0,0,1,.73,1.73c0,.61,0,1.18,0,1.8a2.06,2.06,0,0,1-1,1.48,3,3,0,0,1-1.69.39l.13-.13c0,3.78.79,7.28,2.49,9.75a58.19,58.19,0,0,1,4.18,6.45,15.57,15.57,0,0,1,1.66,4.53,9.51,9.51,0,0,1,.12,1.25A1.22,1.22,0,0,1,141.28,356.15Z" style="fill:#263238"></path><path d="M131.88,333.65a54.9,54.9,0,0,1-6.53.19,54.9,54.9,0,0,1-6.53-.19,59.15,59.15,0,0,1,6.53-.18A59.15,59.15,0,0,1,131.88,333.65Z" style="fill:#263238"></path><path d="M140,361.67c-1.32-.86-3.06-.48-4.47.19a17,17,0,0,1-4.3,1.86,8.3,8.3,0,0,1-5.25-1.34,32,32,0,0,0-4.86-2.66,9.49,9.49,0,0,0-9.77,2.3v35.47s2,6.05,15.67,5.1,12.63-7,12.63-7Z" style="fill:#9dc08b"></path><path d="M181.12,377.89a.35.35,0,0,0,0,.06v41.3c0,1.81-1.46,3.68-4.15,5.1a25.08,25.08,0,0,1-11.47,2.39h-.06c-9.77,0-15.61-3.86-15.61-7.49V378a.35.35,0,0,0,0-.06s0-.05,0-.08c0-4,3-8.26,6-12.42,2-2.78,2.49-6.79,2.58-9.14,0-.28,0-.53,0-.76h-.27a2.18,2.18,0,0,1-2.34-2v-1.75a2.18,2.18,0,0,1,2.34-2h14.67A2.37,2.37,0,0,1,175,351a1.79,1.79,0,0,1,.18.79v1.75a2.18,2.18,0,0,1-2.33,2h-.27c0,.23,0,.48,0,.76.09,2.35.57,6.36,2.58,9.14,3,4.16,6,8.38,6,12.42C181.13,377.84,181.12,377.87,181.12,377.89Z" style="fill:#fafafa"></path><path d="M181.12,377.89s0-.14,0-.42a10.52,10.52,0,0,0-.15-1.24,15.7,15.7,0,0,0-1.71-4.48,61.17,61.17,0,0,0-4.22-6.41,13.06,13.06,0,0,1-1.92-4.44,24.36,24.36,0,0,1-.66-5.41v-.12h.12a2.73,2.73,0,0,0,1.56-.36,1.88,1.88,0,0,0,.9-1.29c0-.56,0-1.18,0-1.77a1.75,1.75,0,0,0-.64-1.53,2.46,2.46,0,0,0-1.65-.55H158.37a2.46,2.46,0,0,0-1.9.68,1.75,1.75,0,0,0-.47.9,9.86,9.86,0,0,0,0,1.1c0,.37,0,.77,0,1.11a1.72,1.72,0,0,0,.44.93,2.45,2.45,0,0,0,2,.71h.17v.18a24.55,24.55,0,0,1-.55,5,13.78,13.78,0,0,1-2,4.82c-1,1.43-2,2.86-3,4.38a22.7,22.7,0,0,0-2.43,4.82,11,11,0,0,0-.59,2.66c0,.9,0,1.85,0,2.79v5.69q0,5.76,0,11.69c0,7,0,13.75,0,20.31a12.45,12.45,0,0,0,.11,2.39,4.66,4.66,0,0,0,1.13,2,11,11,0,0,0,3.86,2.63,21.15,21.15,0,0,0,4.44,1.32,29,29,0,0,0,4.51.52,31.12,31.12,0,0,0,8.69-.8,18.93,18.93,0,0,0,3.93-1.42,9.93,9.93,0,0,0,3.19-2.4,4.79,4.79,0,0,0,.94-1.67,6.27,6.27,0,0,0,.16-1.9v-3.8q0-3.74,0-7.16c0-9.11,0-16.48.06-21.59s.07-7.91.07-7.91a3.36,3.36,0,0,1,0,.52c0,.35,0,.86,0,1.52,0,1.36,0,3.33,0,5.87,0,5.11,0,12.48.06,21.59,0,2.28,0,4.67,0,7.16,0,1.24,0,2.51,0,3.8v1a3.87,3.87,0,0,1-.16,1,5.21,5.21,0,0,1-1,1.78,10.42,10.42,0,0,1-3.29,2.49,19.75,19.75,0,0,1-4,1.45,31.46,31.46,0,0,1-8.78.82,31,31,0,0,1-4.57-.51A22.47,22.47,0,0,1,155,425a11.54,11.54,0,0,1-4-2.72,5,5,0,0,1-1.21-2.17,12.24,12.24,0,0,1-.12-2.48c0-6.56,0-13.35,0-20.31V385.66c0-1.91,0-3.81,0-5.69,0-1,0-1.87,0-2.82a11.53,11.53,0,0,1,.6-2.75,23.64,23.64,0,0,1,2.48-4.89c1-1.53,2-3,3-4.39a13.55,13.55,0,0,0,1.91-4.7,25.16,25.16,0,0,0,.55-4.93l.17.17a2.75,2.75,0,0,1-2.23-.83,2.06,2.06,0,0,1-.53-1.11c0-.42,0-.77,0-1.15a9.13,9.13,0,0,1,0-1.16,2.13,2.13,0,0,1,.55-1.06,2.8,2.8,0,0,1,2.14-.77h14.36a2.76,2.76,0,0,1,1.83.61,2.07,2.07,0,0,1,.72,1.74c0,.61,0,1.18,0,1.8a2.14,2.14,0,0,1-1,1.48,2.92,2.92,0,0,1-1.69.38l.12-.12c.06,3.78.79,7.27,2.49,9.75a58.44,58.44,0,0,1,4.19,6.45,15.67,15.67,0,0,1,1.66,4.53,9.36,9.36,0,0,1,.12,1.25A1.67,1.67,0,0,1,181.12,377.89Z" style="fill:#263238"></path><path d="M171.72,355.39a57.72,57.72,0,0,1-6.53.19,57.83,57.83,0,0,1-6.54-.19,57.83,57.83,0,0,1,6.54-.19A57.72,57.72,0,0,1,171.72,355.39Z" style="fill:#263238"></path><path d="M179.81,383.41c-1.32-.86-3.06-.48-4.48.19a16.91,16.91,0,0,1-4.29,1.86,8.23,8.23,0,0,1-5.25-1.35,32.4,32.4,0,0,0-4.87-2.65,9.48,9.48,0,0,0-9.76,2.3v35.47s2,6,15.66,5.1,12.64-7,12.64-7Z" style="fill:#9dc08b"></path><path d="M103.63,342.08a10.05,10.05,0,0,0-8.47-11.48,1,1,0,0,0-.72.08c-.29.2-.3.62-.27,1a12.13,12.13,0,0,0,9.45,10.71" style="fill:#455a64"></path><path d="M89.54,360.62c2.54,5.23,6.18,8.75,10.7,8.92.9,0,1.58-.56,2.44-.61a5.64,5.64,0,0,1,1.45.54,2,2,0,0,0,.75.17c4.66-.25,8.64-3.53,11.32-9,3.73-7.68,2.57-15.93-2.57-18.44a13.51,13.51,0,0,0-2.11-.83,8.64,8.64,0,0,0-2.56-.3,19.26,19.26,0,0,0-5.85,1.33l-.25.09c-4.18-1.85-7.52-1.86-10.76-.29C87,344.69,85.81,352.94,89.54,360.62Z" style="fill:#9dc08b"></path><path d="M89.63,352.84a3.92,3.92,0,0,1-.43-1.54,8.32,8.32,0,0,1,2.61-7.07,3.65,3.65,0,0,1,1.34-.89c0,.05-.48.39-1.16,1.08a9.12,9.12,0,0,0-2.53,6.85C89.52,352.24,89.7,352.82,89.63,352.84Z" style="fill:#fafafa"></path><path d="M90.58,356.49c-.1,0-.27-.33-.38-.8s-.11-.87,0-.9.27.34.37.81S90.68,356.47,90.58,356.49Z" style="fill:#fafafa"></path><path d="M114.26,329.51c0,.06-1,.43-2.41,1.3a19.12,19.12,0,0,0-2.41,1.72,22.1,22.1,0,0,0-2.54,2.57,20.57,20.57,0,0,0-2,3,20,20,0,0,0-1.21,2.7c-.56,1.59-.73,2.63-.8,2.62a2.57,2.57,0,0,1,.07-.74c0-.24.09-.52.17-.85s.17-.71.31-1.12a17.06,17.06,0,0,1,1.16-2.77,18.54,18.54,0,0,1,2-3.08,20,20,0,0,1,2.61-2.6,17.22,17.22,0,0,1,2.5-1.69,11.09,11.09,0,0,1,1-.52,7.25,7.25,0,0,1,.8-.33A2.34,2.34,0,0,1,114.26,329.51Z" style="fill:#263238"></path><rect x="115.41" y="358.09" width="119.34" height="108.27" style="fill:#9dc08b"></rect><g style="opacity:0.30000000000000004"><rect x="115.41" y="358.09" width="119.34" height="108.27"></rect></g><rect x="66.28" y="358.09" width="119.34" height="108.27" style="fill:#9dc08b"></rect><polygon points="66.28 358.09 41.48 397.54 156.11 397.54 185.62 358.09 66.28 358.09" style="fill:#9dc08b"></polygon><g style="opacity:0.30000000000000004"><polygon points="66.28 358.09 41.48 397.54 156.11 397.54 185.62 358.09 66.28 358.09"></polygon></g><path d="M185.62,358.09s0,.08-.12.2l-.4.57L183.52,361l-6,8.16-21.18,28.5-.08.11h-.14l-32.68,0-57.95-.08-17.56-.1-4.78,0-1.24,0-.42,0a2.24,2.24,0,0,1,.42,0l1.24,0,4.78-.06,17.56-.09,58-.09,32.68,0-.21.11L177.25,369l6.13-8.07,1.65-2.13.43-.54A1.22,1.22,0,0,1,185.62,358.09Z" style="fill:#263238"></path><polygon points="186.73 358.09 218.23 397.54 267.7 397.54 234.75 358.09 186.73 358.09" style="fill:#9dc08b"></polygon><rect x="110.86" y="386.4" width="30.27" height="84.09" transform="translate(-310.66 522.08) rotate(-85.72)" style="fill:#fafafa"></rect><path d="M166.79,446.68s0-.2,0-.55.06-.89.1-1.56c.09-1.38.23-3.39.4-6,.36-5.2.89-12.72,1.55-22.11l.18.2-83.86-6.19h0l.3-.26c-.8,10.52-1.56,20.71-2.27,30.18l-.25-.28,60,4.62,17.49,1.38,4.7.39,1.22.11a3.83,3.83,0,0,1,.43.05l-.4,0-1.19-.07-4.65-.31L143.11,445l-60.19-4.38-.27,0,0-.27c.71-9.47,1.47-19.66,2.25-30.18l0-.28.28,0h0l83.84,6.37h.19v.19c-.75,9.43-1.35,17-1.77,22.21-.21,2.56-.38,4.55-.49,5.93-.06.65-.1,1.16-.13,1.52Z" style="fill:#263238"></path><rect x="88.97" y="405.72" width="4.6" height="8.91" transform="translate(-12.23 2.91) rotate(-1.71)" style="fill:#e0e0e0"></rect><rect x="158.56" y="441.84" width="4.6" height="8.91" transform="translate(-13.27 5.01) rotate(-1.71)" style="fill:#e0e0e0"></rect><rect x="161.87" y="411" width="4.6" height="8.91" transform="translate(140.64 -30.64) rotate(18.54)" style="fill:#e0e0e0"></rect><rect x="86.5" y="436.35" width="4.6" height="8.91" transform="translate(144.79 -5.36) rotate(18.54)" style="fill:#e0e0e0"></rect><path d="M96.07,421.55l4.19.29c3.11.22,5.09,2.29,4.89,5.16s-2.46,4.64-5.56,4.42l-4.19-.3Zm3.54,8.36a3.3,3.3,0,1,0,.46-6.57l-2.32-.16-.47,6.56Z" style="fill:#263238"></path><path d="M106.36,427.08a5.18,5.18,0,1,1,4.81,5.29A4.92,4.92,0,0,1,106.36,427.08Zm8.52.61a3.37,3.37,0,1,0-3.6,3.12A3.28,3.28,0,0,0,114.88,427.69Z" style="fill:#263238"></path><path d="M127.42,423.76l-.68,9.58-1.46-.11-4.83-6.86-.45,6.49-1.77-.12.68-9.58,1.46.1,4.82,6.86.46-6.49Z" style="fill:#263238"></path><path d="M135.69,431.74l-4.79-.34-1.1,2.15-1.84-.13,5-9.27,1.75.12,3.65,9.89-1.86-.14Zm-.49-1.44L133.68,426l-2.08,4.06Z" style="fill:#263238"></path><path d="M141.6,426.27l-3.17-.22.1-1.51,8.13.58-.1,1.5-3.18-.22-.57,8.07-1.78-.12Z" style="fill:#263238"></path><path d="M154.62,433.8l-.11,1.5-7.18-.51.68-9.58,7,.49-.11,1.5-5.21-.37-.18,2.49,4.63.32-.1,1.47-4.63-.33-.19,2.64Z" style="fill:#263238"></path></g><g id="freepik--Floor--inject-9"><path d="M728.22,466.37c0,.14-158.16.26-353.2.26s-353.24-.12-353.24-.26S179.9,466.1,375,466.1,728.22,466.22,728.22,466.37Z" style="fill:#263238"></path></g><g id="freepik--Character--inject-9"><path d="M299.34,442.68s-57.07,18.79-59.16,19.64c-3.15,1.28-2.67,11.49,2.3,11.07,2.35-.19,46.13-.62,51-1.15s19.45-5.87,19.45-5.87Z" style="fill:#455a64"></path><path d="M278.19,464c.22,0,.11-3-1.86-6.07s-4.65-4.44-4.73-4.23,2.17,1.83,4,4.71S277.92,464,278.19,464Z" style="fill:#263238"></path><path d="M283.6,461.2c.23,0-.06-2.72-1.68-5.57s-3.76-4.5-3.89-4.32,1.6,2,3.12,4.75S283.34,461.25,283.6,461.2Z" style="fill:#263238"></path><path d="M288.73,459.56c.22.07.72-2.78-.7-5.91s-3.84-4.67-3.93-4.46,1.85,1.92,3.12,4.82S288.46,459.56,288.73,459.56Z" style="fill:#263238"></path><path d="M287.46,452.75c.15,0-.17-1.52-.12-3.93a21.16,21.16,0,0,1,.5-4.17,17.66,17.66,0,0,1,.7-2.38,2.3,2.3,0,0,1,.53-1,.53.53,0,0,1,.71,0c.49.37.53,1.39.59,2.2a11.45,11.45,0,0,1-.14,2.44,16.84,16.84,0,0,1-1.21,4c-.95,2.21-1.78,3.49-1.66,3.57a10.71,10.71,0,0,0,2.24-3.31,16.13,16.13,0,0,0,1.44-4.13,11.67,11.67,0,0,0,.2-2.61,11.39,11.39,0,0,0-.13-1.4,2.33,2.33,0,0,0-.78-1.47,1.42,1.42,0,0,0-1.83,0,3,3,0,0,0-.79,1.34,19.39,19.39,0,0,0-.67,2.5,18.09,18.09,0,0,0-.33,4.35A9.49,9.49,0,0,0,287.46,452.75Z" style="fill:#263238"></path><path d="M287.5,452.21c0,.14,1.32-.13,3.41-.09a18.18,18.18,0,0,1,3.6.46,7.67,7.67,0,0,1,2,.66,1.36,1.36,0,0,1,.86,1.44A1.83,1.83,0,0,1,296.1,456a4.37,4.37,0,0,1-2,.12,9.71,9.71,0,0,1-3.32-1.26,22.76,22.76,0,0,0-2.92-1.78,9.24,9.24,0,0,0,2.59,2.31,9,9,0,0,0,3.52,1.53,4.85,4.85,0,0,0,2.38-.1,2.69,2.69,0,0,0,1.83-2,2.24,2.24,0,0,0-1.32-2.36,8.21,8.21,0,0,0-2.2-.7,14.81,14.81,0,0,0-3.79-.28C288.73,451.61,287.47,452.11,287.5,452.21Z" style="fill:#263238"></path><path d="M249.14,473.28c0,.09,1-.28,1.69-1.57a7.42,7.42,0,0,0,.51-5.51,19.88,19.88,0,0,0-1-2.86,9,9,0,0,0-1.18-2.21,2.91,2.91,0,0,0-1.38-1.06c-.4-.13-.63-.09-.64,0s.85.31,1.51,1.46a11.31,11.31,0,0,1,.92,2.14,26.75,26.75,0,0,1,.88,2.78,7.69,7.69,0,0,1-.2,5C249.76,472.64,249.05,473.16,249.14,473.28Z" style="fill:#263238"></path><path d="M270.06,464.92c.22.08.81-2.4-.46-5.11s-3.53-3.88-3.6-3.66,1.68,1.57,2.79,4S269.8,464.9,270.06,464.92Z" style="fill:#263238"></path><path d="M307.2,465.62a17.93,17.93,0,0,0-2.52.9,63.25,63.25,0,0,1-7,2.06,80.09,80.09,0,0,1-10.65,1.69c-4,.39-8.51.58-13.21.67-9.41.18-17.93.36-24.1.55l-7.3.27a15.42,15.42,0,0,0-2.68.22,15.83,15.83,0,0,0,2.68.12l7.31,0c6.17,0,14.69-.11,24.11-.29,4.71-.09,9.21-.31,13.28-.74a74,74,0,0,0,10.71-1.9,49.14,49.14,0,0,0,6.94-2.35A13.16,13.16,0,0,0,307.2,465.62Z" style="fill:#263238"></path><path d="M308.83,466.76a14,14,0,0,0-3.82-2.2,17.56,17.56,0,0,0-10.54-1.48,12.47,12.47,0,0,0-5.37,2.58,21.16,21.16,0,0,0-3.37,3.46,16.47,16.47,0,0,0-2.43,3.67,32.41,32.41,0,0,0,2.91-3.27c1.76-1.95,4.47-4.77,8.44-5.57a18.49,18.49,0,0,1,10.12,1.19C307.27,466.1,308.76,466.88,308.83,466.76Z" style="fill:#263238"></path><path d="M205.2,465.41A35.33,35.33,0,0,1,183.93,444a24.32,24.32,0,0,1-1.52-8.39c.27-9.55,6.16-23.08,21-31.26a33.16,33.16,0,0,1,10.45-3.64c6.82-1.16,19.91-3.43,22.55-4.09,0,0,5.7-8.1,5.4-9.9s.32-2.7,0-6.6,6.28-15,6.28-15h90.28s6.29,9.9,5.39,13.19l4.5,11.4s96.72,12,104.07,33.89c5.15,15.3-8.67,28-16.21,33.61a20.12,20.12,0,0,1-8.95,3.71l-36.79,5.48-9.75-.51s6-20.4,1.22-27.89-18.89-5.1-18.89-5.1-58.48,22.79-65.08,25.79-9.93,4.12-9.93,4.12-62.35,6.38-70.75,5.78C213.89,468.32,209.41,467,205.2,465.41Z" style="fill:#263238"></path><path d="M306.09,455.64,312.66,466l68-.12S392.14,451.67,389,444s-18-15-18-15l-27.62,8.63Z" style="fill:#ffbe9d"></path><path d="M303,418.59l1.14,38L363,432.87v-3.16a12.46,12.46,0,0,0-6.6-11h0a12.41,12.41,0,0,0-6.24-1.47Z" style="fill:#ffbe9d"></path><path d="M254.94,413a7.2,7.2,0,0,1-1.47-.16c-.93-.14-2.29-.31-4-.47a74.16,74.16,0,0,0-13.18-.11,73.29,73.29,0,0,0-13,2.31c-1.63.44-3,.83-3.84,1.13a8.7,8.7,0,0,1-1.42.4,7.75,7.75,0,0,1,1.35-.59c.88-.36,2.18-.81,3.81-1.3a64.23,64.23,0,0,1,26.3-2.21c1.68.21,3,.44,4,.64A8.6,8.6,0,0,1,254.94,413Z" style="fill:#455a64"></path><path d="M290.1,415.27a2.45,2.45,0,0,1-.57-.1l-1.63-.37c-1.41-.33-3.44-.82-6-1.37A79,79,0,0,0,273,412a59.77,59.77,0,0,0-11.06-.06c-7.84.7-14.56,3.75-18.54,7a26.45,26.45,0,0,0-4.33,4.26c-.89,1.14-1.33,1.81-1.37,1.78a2,2,0,0,1,.28-.51,15.07,15.07,0,0,1,.93-1.39,24.27,24.27,0,0,1,4.26-4.43c4-3.34,10.78-6.49,18.72-7.2a59,59,0,0,1,11.16.1,72.47,72.47,0,0,1,9,1.57c2.52.6,4.54,1.15,5.93,1.54l1.6.46A2.39,2.39,0,0,1,290.1,415.27Z" style="fill:#455a64"></path><path d="M308.28,428.23c.07-3.87-.15-6.5-1.9-9.14s-4.82-6.26-7.92-7.45c-4.36-1.67-9-.37-13.27,1.53l4,1.94c3.87,0,5.71,2.92,7,6.56s1,7.65.5,11.49A103.27,103.27,0,0,1,288,462.78a37.88,37.88,0,0,0,18.43-1.27C309.89,452.78,308.11,437.64,308.28,428.23Z" style="fill:#263238"></path><path d="M254.39,412.9a7.42,7.42,0,0,1-1.25-.58c-.38-.21-.87-.45-1.44-.71s-1.21-.58-1.95-.86a50,50,0,0,0-5.21-1.85c-2-.58-4.23-1.12-6.6-1.56a88.66,88.66,0,0,0-12.26-1.25c-1.57-.06-2.85-.08-3.74-.08a7.75,7.75,0,0,1-1.38-.07,6.21,6.21,0,0,1,1.38-.14c.88-.05,2.17-.09,3.75-.08A73.38,73.38,0,0,1,238,406.83a61.62,61.62,0,0,1,6.64,1.61,45.78,45.78,0,0,1,5.22,2c.73.31,1.37.65,1.93.94a14.92,14.92,0,0,1,1.41.79A6.83,6.83,0,0,1,254.39,412.9Z" style="fill:#455a64"></path><path d="M328.79,394.92a2.81,2.81,0,0,1-.48.23l-1.43.59c-.63.25-1.39.55-2.3.84s-1.93.68-3.09,1-2.42.7-3.8,1-2.86.61-4.43.91a75.23,75.23,0,0,1-20.62.68c-1.58-.19-3.08-.35-4.47-.61s-2.69-.49-3.86-.75-2.23-.54-3.15-.78-1.71-.48-2.35-.69l-1.47-.49a3.63,3.63,0,0,1-.5-.2,1.68,1.68,0,0,1,.54.1l1.49.39c.64.19,1.43.4,2.36.61s2,.49,3.15.7,2.46.49,3.86.68,2.88.38,4.45.56A86.68,86.68,0,0,0,303,400a88.16,88.16,0,0,0,10.23-1c1.55-.28,3-.52,4.4-.85s2.64-.62,3.8-.93,2.19-.64,3.1-.91,1.69-.54,2.32-.76l1.46-.5A2.12,2.12,0,0,1,328.79,394.92Z" style="fill:#455a64"></path><path d="M306.31,366.89a1.91,1.91,0,0,1,.05.49c0,.38,0,.84.06,1.39,0,1.3.06,3,.1,5.14,0,4.41.1,10.37.17,16.95.06,3.31.06,6.47-.14,9.35a41.92,41.92,0,0,1-1.18,7.55,33.23,33.23,0,0,1-1.69,4.87c-.24.51-.45.92-.62,1.26a2.24,2.24,0,0,1-.24.43,1.39,1.39,0,0,1,.15-.47c.14-.35.31-.78.52-1.29a38.82,38.82,0,0,0,1.52-4.89,43.06,43.06,0,0,0,1.06-7.49c.18-2.86.16-6,.1-9.31-.1-6.63,0-12.62,0-17,0-2.11.05-3.84.06-5.14,0-.55,0-1,.05-1.39A1.47,1.47,0,0,1,306.31,366.89Z" style="fill:#455a64"></path><path d="M311.43,373.06c0,.08-.63.18-1,1a1.7,1.7,0,0,0,0,1.43,1.55,1.55,0,0,0,2.74-.45,1.68,1.68,0,0,0-.44-1.36,2.28,2.28,0,0,0-1.27-.64s.13-.11.42-.1a1.75,1.75,0,0,1,1.11.48,2,2,0,0,1,.65,1.7,2,2,0,0,1-3.63.59,2,2,0,0,1,.08-1.82,1.83,1.83,0,0,1,.89-.81C311.27,373,311.43,373,311.43,373.06Z" style="fill:#455a64"></path><path d="M341.84,376.28s-.2.23-.65.52a8.68,8.68,0,0,1-2,1,10.26,10.26,0,0,1-12.65-5.43,8.53,8.53,0,0,1-.71-2.15,2.38,2.38,0,0,1-.07-.83,23.21,23.21,0,0,0,1.11,2.82A10.34,10.34,0,0,0,339,377.42,24.06,24.06,0,0,0,341.84,376.28Z" style="fill:#455a64"></path><path d="M241.83,381.27c0-.08,1.4.11,3.64.22a47.46,47.46,0,0,0,8.72-.37,46.92,46.92,0,0,0,4.73-.9,10.77,10.77,0,0,0,3.61-1.35,4.15,4.15,0,0,0,1.62-1.95c.22-.57.21-.93.26-.92a1.77,1.77,0,0,1-.07,1,4.12,4.12,0,0,1-1.6,2.18,10.44,10.44,0,0,1-3.7,1.52,40.07,40.07,0,0,1-4.78.94,39,39,0,0,1-8.82.22c-1.13-.1-2-.23-2.65-.34A3.51,3.51,0,0,1,241.83,381.27Z" style="fill:#455a64"></path><path d="M289.23,409a15.1,15.1,0,0,1-1.05-1.32,27.43,27.43,0,0,0-3.14-3.31,35.86,35.86,0,0,0-13.09-7.2,78,78,0,0,0-14.82-2.8l-4.57-.47a9.83,9.83,0,0,1-1.67-.24,12,12,0,0,1,1.69,0c1.08.06,2.65.15,4.58.31a70.3,70.3,0,0,1,14.94,2.68,34.21,34.21,0,0,1,13.19,7.42,23,23,0,0,1,3,3.46c.33.44.53.81.69,1S289.25,409,289.23,409Z" style="fill:#455a64"></path><path d="M354.69,392.92a10.44,10.44,0,0,1-1.71.25c-.55.05-1.23.12-2,.25s-1.67.23-2.64.44a59.23,59.23,0,0,0-6.75,1.69,63.57,63.57,0,0,0-7.9,3.15,62.14,62.14,0,0,0-7.36,4.29,56.94,56.94,0,0,0-5.5,4.27c-.76.63-1.39,1.27-2,1.8s-1.06,1-1.44,1.42a9.69,9.69,0,0,1-1.25,1.2,12.06,12.06,0,0,1,1.1-1.33c.36-.43.82-.94,1.38-1.49s1.18-1.22,1.94-1.88a53.24,53.24,0,0,1,5.46-4.39,58.4,58.4,0,0,1,7.41-4.35,57.43,57.43,0,0,1,8-3.14,52.65,52.65,0,0,1,6.83-1.6c1-.19,1.88-.27,2.67-.36s1.47-.15,2-.18A11.91,11.91,0,0,1,354.69,392.92Z" style="fill:#455a64"></path><path d="M378.48,398.08a1.65,1.65,0,0,1-.48.07l-1.41.09c-.6,0-1.35.07-2.21.15s-1.84.14-2.92.28c-2.17.22-4.73.61-7.55,1.16s-5.89,1.33-9.05,2.32-6.11,2.16-8.75,3.3-4.94,2.33-6.84,3.39c-1,.51-1.8,1-2.55,1.46s-1.39.82-1.9,1.14l-1.2.73a1.83,1.83,0,0,1-.44.23s.12-.12.38-.31l1.15-.82c.5-.35,1.12-.77,1.86-1.22s1.56-1,2.52-1.53c1.88-1.1,4.2-2.3,6.83-3.5a79.43,79.43,0,0,1,17.9-5.66,76.52,76.52,0,0,1,7.6-1.06c1.09-.12,2.08-.15,2.94-.2s1.62-.06,2.23-.06H378A1.72,1.72,0,0,1,378.48,398.08Z" style="fill:#455a64"></path><path d="M423.66,419.15a3.29,3.29,0,0,1-.64.16c-.42.09-1,.19-1.85.31a64.33,64.33,0,0,1-6.88.54c-2.91.09-6.38,0-10.22-.12s-8.06-.29-12.48-.11a51.55,51.55,0,0,0-12.28,1.82,33.22,33.22,0,0,0-9.18,4.22,25.49,25.49,0,0,0-5.12,4.51c-1.06,1.23-1.53,2-1.58,2a3,3,0,0,1,.33-.57,16.24,16.24,0,0,1,1.09-1.52,24.36,24.36,0,0,1,5.07-4.69,32.84,32.84,0,0,1,9.26-4.37,50.52,50.52,0,0,1,12.39-1.88c4.45-.18,8.68,0,12.52.15s7.3.27,10.2.23,5.24-.2,6.85-.37l1.86-.22A3,3,0,0,1,423.66,419.15Z" style="fill:#455a64"></path><path d="M363,432.87a2.94,2.94,0,0,1-.54.27l-1.6.67-5.89,2.4L335.44,444c-7.6,3.07-14.43,6-19.33,8.15l-5.81,2.6-1.58.7a2.13,2.13,0,0,1-.56.21,2.79,2.79,0,0,1,.52-.3l1.54-.79c1.34-.68,3.3-1.62,5.74-2.75,4.87-2.27,11.68-5.23,19.28-8.3s14.53-5.73,19.56-7.64l5.95-2.23,1.63-.59A2.21,2.21,0,0,1,363,432.87Z" style="fill:#eb996e"></path><path d="M350.53,417.19l11.67,0A10.51,10.51,0,0,1,371,422l1.47,2.28a31.57,31.57,0,0,0-9.51,8.56l-3.82.35Z" style="fill:#ffbe9d"></path><path d="M360.52,433.87c5.94-.91,12.58-1.34,17.53,2.06,3.87,2.65,5.76,6.67,6.24,11.33s-.36,9.35-1.06,14c-.22,1.44-.38,4,.84,4.8.78.5,2.1.29,3,.15,2.55-.37,5.85-.19,7.2-2.37.86-1.39.24-4.56.22-6.2-.05-3.72-.21-7.44-.46-11.15-.3-4.43-.81-9-3.2-12.77a16.68,16.68,0,0,0-6.48-5.73c-7.9-4.07-22.5-.62-23.84,5.89" style="fill:#263238"></path><path d="M431.59,420.23s-.21-.32-.67-.81a6,6,0,0,0-2.4-1.48,15.94,15.94,0,0,0-4.19-.76c-1.62-.14-3.4-.23-5.27-.25a72.87,72.87,0,0,0-9.57.57c-2.43.3-3.93.58-3.95.5a4.17,4.17,0,0,1,1-.31c.67-.16,1.65-.36,2.87-.56a58.25,58.25,0,0,1,9.62-.72c1.89,0,3.69.12,5.31.29a15.3,15.3,0,0,1,4.28.89,5.74,5.74,0,0,1,2.42,1.7,3.26,3.26,0,0,1,.43.68C431.58,420.14,431.61,420.23,431.59,420.23Z" style="fill:#455a64"></path><path d="M372.35,424.11a16.89,16.89,0,0,0-.92-2.36,10.38,10.38,0,0,0-4.37-4.08,23.16,23.16,0,0,0-5.84-1.83,13.84,13.84,0,0,1-2.51-.57,10.86,10.86,0,0,1,2.57.21,19.22,19.22,0,0,1,6,1.73,9.87,9.87,0,0,1,4.47,4.37,6.33,6.33,0,0,1,.57,1.83A1.65,1.65,0,0,1,372.35,424.11Z" style="fill:#455a64"></path><path d="M290.1,415.27s.12.13.3.42l.76,1.25a19.73,19.73,0,0,1,1.1,2,28.16,28.16,0,0,1,1.25,2.8c.21.54.42,1.09.65,1.67s.37,1.21.58,1.85a42,42,0,0,1,1,4.15,47.23,47.23,0,0,1,.73,9.76,48.13,48.13,0,0,1-1.43,9.68c-.41,1.45-.79,2.83-1.28,4.07a35.88,35.88,0,0,1-1.42,3.44c-.44,1.06-1,1.94-1.39,2.74a18.62,18.62,0,0,1-1.19,2l-.81,1.21c-.19.28-.29.42-.31.41a2.06,2.06,0,0,1,.22-.46l.73-1.27a20.56,20.56,0,0,0,1.1-2c.39-.81.9-1.69,1.31-2.75a34.61,34.61,0,0,0,1.35-3.43,42.3,42.3,0,0,0,1.22-4.05,49.52,49.52,0,0,0,1.38-9.58,48.47,48.47,0,0,0-.68-9.65,41.7,41.7,0,0,0-1-4.12c-.19-.64-.33-1.26-.54-1.84s-.41-1.13-.61-1.66c-.35-1.08-.82-2-1.17-2.81a21.13,21.13,0,0,0-1-2.07l-.67-1.29A2.45,2.45,0,0,1,290.1,415.27Z" style="fill:#455a64"></path><path d="M308.28,428.23a14.75,14.75,0,0,1,0-1.5,15.4,15.4,0,0,0-.61-4,16.54,16.54,0,0,0-2.67-5.36,14.89,14.89,0,0,0-5.67-4.56,16,16,0,0,0-8-1.31,15.61,15.61,0,0,0-6,1.84V413l2.91,1.49a5.21,5.21,0,0,1,1,.59,6.13,6.13,0,0,1-1.09-.43l-3-1.36-.29-.13.28-.16a15.43,15.43,0,0,1,6.15-2,16.19,16.19,0,0,1,8.26,1.3,15.21,15.21,0,0,1,5.83,4.75,16,16,0,0,1,2.64,5.55,14,14,0,0,1,.47,4.12,8.19,8.19,0,0,1-.1,1.12C308.33,428.1,308.3,428.23,308.28,428.23Z" style="fill:#455a64"></path><path d="M371.94,426.77a2,2,0,0,1,.53,0c.34,0,.86,0,1.52,0a37.54,37.54,0,0,1,5.57.52,18.44,18.44,0,0,1,7.69,3.14,19.66,19.66,0,0,1,6.23,8,28.08,28.08,0,0,1,2.31,9.91,49.37,49.37,0,0,1-.26,8.3c-.25,2.35-.55,4.23-.75,5.53-.11.61-.2,1.1-.27,1.5a2.64,2.64,0,0,1-.12.52,2,2,0,0,1,0-.54c0-.4.1-.9.16-1.5.15-1.31.4-3.2.6-5.55a54.55,54.55,0,0,0,.14-8.23,28.21,28.21,0,0,0-2.3-9.72,19.56,19.56,0,0,0-6.05-7.84,18.24,18.24,0,0,0-7.47-3.15A43.09,43.09,0,0,0,374,427l-1.52-.11A2.75,2.75,0,0,1,371.94,426.77Z" style="fill:#455a64"></path><path d="M357.73,244a33.7,33.7,0,0,0-14.29-6.44c-9.13-1.92-46.31-.73-46.31-.73l-31.37,4s-16.86,6-21.66,26.82,1.66,84.06,1.66,84.06a32.62,32.62,0,0,1,2,8.8c0,.08,0,.17,0,.26a15.87,15.87,0,0,0,.25,4.23h3.37c5.12,3.94,13.76,8,13.76,8s.91-3.3,2.76-8h70.39s7.17,3.92,10.53-6.65,13.37-14.65,15.63-33.28S357.73,244,357.73,244Z" style="fill:#455a64"></path><path d="M266.68,365a8.23,8.23,0,0,1,.35-1.43c.13-.46.29-1,.53-1.65s.46-1.37.81-2.15A44.92,44.92,0,0,1,271,354.4a45.59,45.59,0,0,1,9.21-11.3,44.22,44.22,0,0,1,4.72-3.67c.69-.49,1.36-.87,1.94-1.23s1.08-.63,1.51-.84a8.25,8.25,0,0,1,1.33-.64,6.93,6.93,0,0,1-1.23.81c-.41.24-.9.54-1.46.92s-1.21.77-1.88,1.28a49.55,49.55,0,0,0-4.6,3.72,52.93,52.93,0,0,0-5,5.26,52.3,52.3,0,0,0-4.14,5.94,48.55,48.55,0,0,0-2.71,5.26c-.37.76-.62,1.48-.88,2.1s-.45,1.16-.6,1.61A7.46,7.46,0,0,1,266.68,365Z" style="fill:#263238"></path><path d="M357.73,244a61.2,61.2,0,0,1,7.8,16.54c3,9.82,23.21,69.23,23.21,69.23L361.5,350.86l-8.79-7.2Z" style="fill:#455a64"></path><path d="M280.12,332.85a2.8,2.8,0,0,1,1.48-.86,5.26,5.26,0,0,1,6.66,3.59,2.7,2.7,0,0,1,.1,1.7c-.09,0-.09-.65-.45-1.59a5.29,5.29,0,0,0-6.22-3.34C280.71,332.56,280.17,332.92,280.12,332.85Z" style="fill:#263238"></path><path d="M279.3,321.53a3.86,3.86,0,0,1,1.71.67,9.1,9.1,0,0,1,3.11,3.18,9,9,0,0,1,1.24,4.27,3.79,3.79,0,0,1-.25,1.82c-.08,0,0-.71-.11-1.8a10.14,10.14,0,0,0-4.19-7.16C279.92,321.88,279.27,321.61,279.3,321.53Z" style="fill:#263238"></path><path d="M276.84,258.59a2.8,2.8,0,0,1,.33.57l.83,1.69a19.49,19.49,0,0,1,1.12,2.77c.2.55.4,1.13.62,1.75l.54,2A65.29,65.29,0,0,1,282,277.53c.37,3.86.51,8.12.52,12.58,0,8.93-.52,17-.61,22.83-.05,1.46-.06,2.78-.05,3.93s0,2.16,0,3,0,1.39,0,1.88a2.82,2.82,0,0,1,0,.66,3.55,3.55,0,0,1-.08-.66c0-.48-.07-1.1-.12-1.87s-.09-1.82-.11-3,0-2.49,0-3.95c0-5.85.41-13.92.46-22.82,0-4.45-.13-8.69-.48-12.53a68.59,68.59,0,0,0-1.6-10.09c-.17-.71-.34-1.38-.49-2s-.4-1.21-.58-1.76a22.64,22.64,0,0,0-1-2.78c-.31-.71-.55-1.28-.75-1.72A4.72,4.72,0,0,1,276.84,258.59Z" style="fill:#263238"></path><path d="M279,335.25a7.08,7.08,0,0,1-1.12.67c-.73.39-1.78,1-3,1.79a51.08,51.08,0,0,0-4.26,3,48.86,48.86,0,0,0-8.93,9.09,50.49,50.49,0,0,0-2.93,4.33c-.76,1.27-1.35,2.32-1.73,3.07a5.28,5.28,0,0,1-.65,1.12,7.13,7.13,0,0,1,.47-1.21,30.3,30.3,0,0,1,1.6-3.17,43.19,43.19,0,0,1,2.85-4.42,49.8,49.8,0,0,1,4.18-4.92,49.25,49.25,0,0,1,4.84-4.27,45.33,45.33,0,0,1,4.37-2.94,35.35,35.35,0,0,1,3.14-1.65A5.92,5.92,0,0,1,279,335.25Z" style="fill:#263238"></path><path d="M352.21,352.64s0-.08.1-.22l.33-.62c.3-.54.74-1.34,1.33-2.35,1.16-2,2.93-4.95,5.14-8.51a23.83,23.83,0,0,0,2.86-6.16,63.85,63.85,0,0,0,1.8-7.63,78.15,78.15,0,0,0,1-8.61c.15-3,.17-6.13.13-9.32a163.11,163.11,0,0,0-3.8-32.46c-.91-4.09-1.8-7.37-2.42-9.63l-.74-2.59c-.07-.28-.13-.5-.18-.68a2.29,2.29,0,0,1,0-.24.9.9,0,0,1,.1.22l.23.66c.21.63.48,1.49.84,2.58.67,2.24,1.62,5.51,2.58,9.6a155.71,155.71,0,0,1,4,32.53c0,3.21,0,6.33-.14,9.36a76.73,76.73,0,0,1-1.05,8.67,62.9,62.9,0,0,1-1.86,7.67,24.4,24.4,0,0,1-2.95,6.22c-2.26,3.55-4.07,6.41-5.28,8.42l-1.42,2.3-.37.6A.86.86,0,0,1,352.21,352.64Z" style="fill:#263238"></path><path d="M446.15,324.21c3.56-11.95,15.1-16.28,22.29-21,5.05,4.24-4.37,9.81-6.83,11.84-.88,9.27,14,1.25,15.64,1.44.36.25,4-4.17,8-9,2.08-1.82,5.82.3,4.43,3.06,3.08-.19,3.09,2.72,1.3,6.17.61,1.88,1,6.74-1.36,8.91-.09.36-.55,8.2-2.89,10.5-14.17,8.69-35.76,14.19-35.76,14.19l-89.43.62,12.39-29.33,72.23,2.69" style="fill:#ffbe9d"></path><path d="M470.1,326.87c0,.06.39.05,1.08,0a15.59,15.59,0,0,0,2.89-.54,22.72,22.72,0,0,0,14.41-12.2,16.53,16.53,0,0,0,1-2.75,2.82,2.82,0,0,0,.18-1.06c-.13-.05-.56,1.42-1.69,3.57a24.83,24.83,0,0,1-14.07,11.91C471.6,326.56,470.09,326.73,470.1,326.87Z" style="fill:#eb996e"></path><path d="M473.58,332.54a9.59,9.59,0,0,0,3.61-.7,21,21,0,0,0,12.56-11.94,10.07,10.07,0,0,0,.88-3.57c-.14,0-.46,1.33-1.39,3.35A23.08,23.08,0,0,1,477,331.32C474.93,332.15,473.56,332.4,473.58,332.54Z" style="fill:#eb996e"></path><path d="M473.06,337.92a11.64,11.64,0,0,0,3.1-.68,27.06,27.06,0,0,0,7-3.08,16.14,16.14,0,0,0,5.24-5.64,6.54,6.54,0,0,0,1.15-3c-.11,0-.54,1.09-1.62,2.68a18.1,18.1,0,0,1-5.2,5.27,33.72,33.72,0,0,1-6.78,3.21A13.87,13.87,0,0,0,473.06,337.92Z" style="fill:#eb996e"></path><path d="M460.35,338.06a7.23,7.23,0,0,0,2.48-2.64,13.25,13.25,0,0,0,2-8.51,15.07,15.07,0,0,0-1.38-4.66,12.45,12.45,0,0,1-1.11-3.62,6.15,6.15,0,0,1,.63-3.37s-.32.19-.64.75a5.06,5.06,0,0,0-.55,2.65,11.67,11.67,0,0,0,1,3.86A16.11,16.11,0,0,1,464,327a13.92,13.92,0,0,1-1.66,8.14C461.29,337,460.25,338,460.35,338.06Z" style="fill:#eb996e"></path><rect x="363.82" y="302.14" width="122.37" height="19.76" rx="9.36" style="fill:#9dc08b"></rect><rect x="365.08" y="282.38" width="122.37" height="19.76" rx="9.36" style="fill:#9dc08b"></rect><path d="M388.28,302.14c0-.14,20.37-.26,45.48-.26s45.49.12,45.49.26-20.36.26-45.49.26S388.28,302.29,388.28,302.14Z" style="fill:#263238"></path><path d="M406,322a11.14,11.14,0,0,1-.81-2.71,32.58,32.58,0,0,1-.76-6.8,33.11,33.11,0,0,1,.63-6.82,11,11,0,0,1,.77-2.73,23.44,23.44,0,0,1-.41,2.79,44.09,44.09,0,0,0-.47,6.75,43.07,43.07,0,0,0,.6,6.74A21.92,21.92,0,0,1,406,322Z" style="fill:#fff"></path><path d="M424.25,322.38a12.41,12.41,0,0,1-.71-2.83,41.83,41.83,0,0,1-.13-14.06,13.05,13.05,0,0,1,.66-2.85,20.89,20.89,0,0,1-.3,2.9,56.14,56.14,0,0,0,.13,13.95A23.2,23.2,0,0,1,424.25,322.38Z" style="fill:#fff"></path><path d="M443.06,322.39a12.71,12.71,0,0,1-.61-2.87,52.24,52.24,0,0,1-.14-14.13,13.88,13.88,0,0,1,.55-2.88,20.55,20.55,0,0,1-.18,2.92c-.15,1.79-.29,4.28-.26,7s.21,5.23.39,7A23.12,23.12,0,0,1,443.06,322.39Z" style="fill:#fff"></path><path d="M464.07,321.67a14.21,14.21,0,0,1-.44-2.75c-.19-1.7-.4-4.06-.56-6.67s-.22-5-.23-6.7a13.34,13.34,0,0,1,.1-2.77,15.49,15.49,0,0,1,.26,2.76c.11,1.88.25,4.16.39,6.68s.3,4.79.41,6.67A16,16,0,0,1,464.07,321.67Z" style="fill:#fff"></path><path d="M473.56,302.22a89.45,89.45,0,0,1-.44-9.72,92.13,92.13,0,0,1,.08-9.73,89.45,89.45,0,0,1,.44,9.72A92.23,92.23,0,0,1,473.56,302.22Z" style="fill:#fff"></path><path d="M452.23,301.79a13.85,13.85,0,0,1-.55-2.86,49.8,49.8,0,0,1-.36-7,48.26,48.26,0,0,1,.64-7,13.49,13.49,0,0,1,.65-2.84,19.81,19.81,0,0,1-.29,2.89c-.2,1.78-.43,4.24-.48,7s.07,5.2.21,7A20.23,20.23,0,0,1,452.23,301.79Z" style="fill:#fff"></path><path d="M431.34,302.36a14.05,14.05,0,0,1-.43-2.95,54.94,54.94,0,0,1,.66-14.33,12.84,12.84,0,0,1,.71-2.89,24,24,0,0,1-.35,2.95c-.24,1.81-.51,4.32-.64,7.11s-.09,5.31,0,7.14A20.51,20.51,0,0,1,431.34,302.36Z" style="fill:#fff"></path><path d="M412.22,302.49a12.77,12.77,0,0,1-.73-2.85,40.21,40.21,0,0,1,0-14.18,13,13,0,0,1,.73-2.86,25.06,25.06,0,0,1-.36,2.91,51.79,51.79,0,0,0,0,14.07A22.58,22.58,0,0,1,412.22,302.49Z" style="fill:#fff"></path><path d="M390.6,301.76a2.39,2.39,0,0,1-.35-.7,17.28,17.28,0,0,1-.71-2,27.42,27.42,0,0,1-1.05-7,26.82,26.82,0,0,1,.79-7,18.36,18.36,0,0,1,.62-2,2.4,2.4,0,0,1,.33-.71c.08,0-.24,1.08-.59,2.83a32,32,0,0,0-.63,6.9,32.88,32.88,0,0,0,.89,6.87C390.32,300.68,390.68,301.73,390.6,301.76Z" style="fill:#fff"></path><path d="M387.09,321a9.6,9.6,0,0,1-1.27-2.46,23.75,23.75,0,0,1-1.26-13.2,9.94,9.94,0,0,1,.78-2.66,27.34,27.34,0,0,1-.42,2.72,27.64,27.64,0,0,0,1.24,13C386.72,320,387.17,320.94,387.09,321Z" style="fill:#fff"></path><path d="M374.59,320.27a7.47,7.47,0,0,1-1.17-2.4,21.34,21.34,0,0,1-1.07-6.34,39.44,39.44,0,0,1,.4-6.41,12.81,12.81,0,0,1,.48-2.62,14.76,14.76,0,0,1-.12,2.66,60,60,0,0,0-.24,6.35,25.46,25.46,0,0,0,.9,6.25C374.22,319.32,374.66,320.23,374.59,320.27Z" style="fill:#fff"></path><path d="M377.73,282.38c.09.05-.47,1.05-1.07,2.78a21.65,21.65,0,0,0-1.16,7,30.91,30.91,0,0,0,.93,7.09,26.43,26.43,0,0,1,.71,2.9,2.53,2.53,0,0,1-.35-.73,20.88,20.88,0,0,1-.71-2.08,25.82,25.82,0,0,1-1.1-7.18,19.2,19.2,0,0,1,1.33-7.14,14.24,14.24,0,0,1,1-2C377.54,282.6,377.7,282.36,377.73,282.38Z" style="fill:#fff"></path><rect x="384.25" y="267.74" width="90.55" height="14.62" rx="6.92" style="fill:#455a64"></rect><rect x="385.19" y="253.11" width="90.55" height="14.62" rx="6.92" style="fill:#455a64"></rect><path d="M401.88,267.58c0-.15,15.07-.26,33.66-.26s33.66.11,33.66.26-15.07.26-33.66.26S401.88,267.72,401.88,267.58Z" style="fill:#263238"></path><path d="M402.82,253.55a14.25,14.25,0,0,1-2.29,1.53l-5.62,3.51-5.56,3.6a15.82,15.82,0,0,1-2.36,1.43,13.34,13.34,0,0,1,2.15-1.73c1.37-1,3.3-2.34,5.49-3.73s4.22-2.58,5.72-3.4A14.31,14.31,0,0,1,402.82,253.55Z" style="fill:#fff"></path><path d="M423.75,253.69c.08.12-4.46,3.3-10.13,7.1s-10.34,6.79-10.42,6.67,4.46-3.3,10.13-7.1S423.67,253.57,423.75,253.69Z" style="fill:#fff"></path><path d="M445.53,253.69c.08.12-4.45,3.3-10.12,7.1s-10.34,6.79-10.42,6.67,4.45-3.3,10.13-7.1S445.45,253.57,445.53,253.69Z" style="fill:#fff"></path><path d="M416.58,267.92c.08.12-4.45,3.3-10.12,7.1s-10.34,6.79-10.42,6.67,4.45-3.29,10.13-7.1S416.5,267.8,416.58,267.92Z" style="fill:#fff"></path><path d="M441.56,267.92c.08.12-4.45,3.3-10.12,7.1s-10.34,6.79-10.42,6.67,4.45-3.29,10.13-7.1S441.48,267.8,441.56,267.92Z" style="fill:#fff"></path><path d="M466.55,267.92c.08.12-4.46,3.3-10.13,7.1s-10.34,6.79-10.42,6.67,4.46-3.29,10.13-7.1S466.47,267.8,466.55,267.92Z" style="fill:#fff"></path><path d="M467.32,253.69c.08.12-4.46,3.3-10.13,7.1s-10.34,6.79-10.42,6.67,4.46-3.3,10.13-7.1S467.24,253.57,467.32,253.69Z" style="fill:#fff"></path><path d="M292,369.87c20.81-11.81,54.07-38.26,54.07-38.26L337,313.26l-44.74,22.36a46.3,46.3,0,0,0-22.06,23.67l-5.31,12.8h0A32.46,32.46,0,0,0,292,369.87Z" style="fill:#ffbe9d"></path><rect x="364.53" y="321.53" width="122.37" height="19.76" rx="9.36" style="fill:#455a64"></rect><path d="M478.82,321.67c0,.14-23.67.26-52.86.26s-52.87-.12-52.87-.26,23.66-.26,52.87-.26S478.82,321.53,478.82,321.67Z" style="fill:#263238"></path><path d="M480.07,339.28a1.26,1.26,0,0,1-.29,0l-.82-.1-3.14-.46L464.26,337c-9.77-1.48-23.25-3.5-38.17-5.62s-28.43-3.93-38.22-5.23l-11.59-1.54-3.15-.43-.82-.13a1,1,0,0,1-.27-.06.84.84,0,0,1,.28,0l.82.07,3.17.34,11.61,1.38c9.8,1.2,23.33,3,38.25,5.08s28.39,4.19,38.14,5.77l11.54,1.91,3.13.55.81.16Z" style="fill:#263238"></path><path d="M473.87,321.58a8.08,8.08,0,0,1-1.55.45l-4.26,1.06c-3.6.89-8.57,2.12-14,3.58s-10.39,2.85-14,3.87l-4.22,1.2a8.57,8.57,0,0,1-1.57.38,11.21,11.21,0,0,1,1.51-.57c1-.34,2.41-.8,4.18-1.36,3.54-1.11,8.45-2.57,13.92-4s10.47-2.64,14.09-3.43c1.81-.4,3.28-.71,4.3-.9A10.61,10.61,0,0,1,473.87,321.58Z" style="fill:#263238"></path><path d="M337,313.29l16.78-15.44L373,289.79a4.41,4.41,0,0,1-1.11,5.17c-2.53,2.63-7.48,5.64-9.32,7.05s-3.34,2.65-2.35,5.44c.45,1.3,2.43,2.55,7,3s15,0,15.61,2.8-2.63,3.45-2.63,3.45l-13.64.82s-2.79-.82-2.13,1.31a11.43,11.43,0,0,0,2.13,3.78S384,331,385.11,334s.66,4.26,0,4.11-16-6.24-16-6.24,18.27,10.68,17.95,12.32-1,2.3-3,2.14-15.3-7.78-15.3-7.78,10.37,7.78,10.53,8.93-1.15,1.81-2.46,1.31-14.84-8.38-14.84-8.38l-19.56-9.53Z" style="fill:#ffbe9d"></path><path d="M288.37,164.16l-.31-6.15,36.78-8.19c11.36-1.56,24.05,9.49,25.13,20.92,1.2,12.69,2.16,28.24.94,37.77-2.43,19.18-17,22.06-17,22.06l.52,12.25a20,20,0,0,1-19.08,20.79h0a20,20,0,0,1-20.78-18.42Z" style="fill:#ffbe9d"></path><path d="M344.89,185.6a2.45,2.45,0,0,1-2.29,2.54A2.34,2.34,0,0,1,340,186a2.47,2.47,0,0,1,2.28-2.55A2.35,2.35,0,0,1,344.89,185.6Z" style="fill:#263238"></path><path d="M346.19,179c-.3.33-2.19-1-4.83-.9s-4.52,1.47-4.81,1.15c-.15-.14.14-.72,1-1.36a6.75,6.75,0,0,1,3.85-1.32,6.41,6.41,0,0,1,3.85,1.12C346,178.25,346.33,178.82,346.19,179Z" style="fill:#263238"></path><path d="M320.37,186a2.44,2.44,0,0,1-2.28,2.54,2.34,2.34,0,0,1-2.59-2.12,2.46,2.46,0,0,1,2.28-2.55A2.34,2.34,0,0,1,320.37,186Z" style="fill:#263238"></path><path d="M320.32,180.26c-.3.33-2.2-1-4.83-.89s-4.52,1.46-4.82,1.15c-.14-.14.15-.73,1-1.37a6.75,6.75,0,0,1,3.85-1.31,6.48,6.48,0,0,1,3.85,1.11C320.17,179.55,320.46,180.12,320.32,180.26Z" style="fill:#263238"></path><path d="M330.48,199.5c0-.15,1.61-.49,4.25-.91.67-.09,1.31-.24,1.4-.7a3.37,3.37,0,0,0-.51-2q-1-2.41-2.14-5.06c-3-7.21-5.18-13.14-4.89-13.26s3,5.63,5.94,12.83l2.07,5.1a3.93,3.93,0,0,1,.43,2.62,1.7,1.7,0,0,1-1.08,1,4.35,4.35,0,0,1-1.14.2C332.15,199.58,330.49,199.65,330.48,199.5Z" style="fill:#263238"></path><path d="M333.92,230.62a50.53,50.53,0,0,1-26.42-6s6.86,13.16,26.55,10.8Z" style="fill:#eb996e"></path><path d="M329.56,205.88a4.72,4.72,0,0,0-4.31-1.63,4.34,4.34,0,0,0-2.94,1.69,2.76,2.76,0,0,0-.11,3.15,3.19,3.19,0,0,0,3.48.77,9.92,9.92,0,0,0,3.3-2.12,2.78,2.78,0,0,0,.73-.8.89.89,0,0,0,0-1" style="fill:#eb996e"></path><path d="M322.79,201.56c.42,0,.52,2.82,3,4.77s5.54,1.55,5.57,1.95c.05.17-.66.57-1.94.65a7.15,7.15,0,0,1-4.65-1.46,6.2,6.2,0,0,1-2.36-4C322.29,202.27,322.59,201.55,322.79,201.56Z" style="fill:#263238"></path><path d="M320.68,172.81c-.24.72-2.88.46-6,.93s-5.55,1.39-6,.76c-.19-.3.22-1,1.21-1.71A10.41,10.41,0,0,1,319,171.5C320.19,171.92,320.78,172.46,320.68,172.81Z" style="fill:#263238"></path><path d="M345.83,169.94c-.45.61-2.28.05-4.46.09s-4,.52-4.46-.09c-.2-.3.07-.91.86-1.5a6.47,6.47,0,0,1,7.19,0C345.75,169,346,169.64,345.83,169.94Z" style="fill:#263238"></path><path d="M356.14,153.44a11.86,11.86,0,0,0,4.23-12.38,13.53,13.53,0,0,0-9.49-9.29,15.84,15.84,0,0,0-13.19,2.63,5,5,0,0,0-3.78-4.58,9.22,9.22,0,0,0-6.21.82,16.36,16.36,0,0,0-7.89,7.79,10.08,10.08,0,0,0-17.74,1.29,32,32,0,0,1-1.63,4,5,5,0,0,1-4.13,2v0c-2.27,0-4.63,1.34-6.68,2.66a17,17,0,0,0-6.86,13.09c.13,12.9,4.16,19.5,4.53,31.86a4.35,4.35,0,0,0,.52,2.37c1.2,1.75,4,.88,5.6-.49,3.93-3.33,5.94-8.43,6.93-13.48s1.11-10.26,2.05-15.32c0-.12.05-.24.07-.36a14.06,14.06,0,0,1,2.56-5.8,36.18,36.18,0,0,0,4.66,2.8A15.21,15.21,0,0,0,327.25,159a22.31,22.31,0,0,0,14.33,4.74c5.14-.16,10.19-1.27,14-4.68a7.2,7.2,0,0,0,2.14-3.28A2.19,2.19,0,0,0,356.14,153.44Z" style="fill:#263238"></path><path d="M292.23,188.81c-.26-.13-10.37-3.61-10.53,6.87s10.39,8.47,10.41,8.17S292.23,188.81,292.23,188.81Z" style="fill:#ffbe9d"></path><path d="M289,199.84s-.18.12-.49.26a1.82,1.82,0,0,1-1.37,0c-1.1-.42-2-2.19-2-4.08a5.87,5.87,0,0,1,.55-2.6A2.08,2.08,0,0,1,287,192a.93.93,0,0,1,1.07.51c.14.3.07.51.12.52s.23-.17.15-.6a1.15,1.15,0,0,0-.4-.66,1.4,1.4,0,0,0-1-.29,2.6,2.6,0,0,0-1.94,1.6,6.21,6.21,0,0,0-.67,2.91c0,2.11,1.08,4.1,2.59,4.56a1.9,1.9,0,0,0,1.67-.25C289,200.09,289,199.86,289,199.84Z" style="fill:#eb996e"></path><path d="M286.19,203.59a4.73,4.73,0,0,1-.34.78c-.26.55-.62,1.28-1.06,2.21l-.78,1.59a1.62,1.62,0,0,1-.73.78,3.35,3.35,0,0,1-1.1.27l-5.08.77-.71.11a1.46,1.46,0,0,0-.59.25,1.3,1.3,0,0,0-.5,1.16c0,.48.36.79.77,1.17s.78.76,1.19,1.14c.8.78,1.63,1.59,2.49,2.41l.65.64a1.76,1.76,0,0,1,.43.95,1.89,1.89,0,0,1,0,.53l-.07.45c-.06.31-.11.62-.16.93-.21,1.24-.42,2.51-.64,3.8-.06.33-.11.65-.17,1a1.42,1.42,0,0,0,.05.85,1.26,1.26,0,0,0,1.37.74,4.36,4.36,0,0,0,.87-.4l.92-.49,1.86-1,1.89-1,.47-.25a1.79,1.79,0,0,1,.59-.2,1.82,1.82,0,0,1,1.2.24l4.82,2.54a6.23,6.23,0,0,0,1.13.53,1.24,1.24,0,0,0,1-.28,1.26,1.26,0,0,0,.44-.95c0-.35-.13-.82-.19-1.23-.29-1.68-.57-3.31-.84-4.9a2.39,2.39,0,0,1,0-1.3,1.71,1.71,0,0,1,.36-.59l.43-.42,1.65-1.6,1.59-1.54.77-.74a2,2,0,0,0,.58-.74,1.31,1.31,0,0,0-.54-1.52,2.06,2.06,0,0,0-.86-.24l-.94-.14-3.48-.53-1.56-.24a1.64,1.64,0,0,1-1.25-.91h0c-.78-2-1.41-3.57-1.85-4.71-.2-.52-.35-.93-.47-1.25a3.15,3.15,0,0,1-.14-.44,2.07,2.07,0,0,1,.21.41l.54,1.22c.47,1.13,1.14,2.7,2,4.67h0a1.32,1.32,0,0,0,1,.72l1.57.22,3.49.48.94.13a2.66,2.66,0,0,1,1,.28,1.71,1.71,0,0,1,.73,2,2.23,2.23,0,0,1-.67.91l-.76.75c-.52.51-1,1-1.58,1.55s-1.09,1.06-1.64,1.61a2.3,2.3,0,0,0-.67.83,1.83,1.83,0,0,0,0,1.06c.28,1.58.56,3.22.85,4.9.07.44.16.8.21,1.31a1.76,1.76,0,0,1-2.06,1.73,5.73,5.73,0,0,1-1.27-.58l-4.82-2.53a1.34,1.34,0,0,0-.88-.19,1.32,1.32,0,0,0-.42.15l-.48.25-1.89,1-1.86,1-.92.48a3.94,3.94,0,0,1-1,.45,1.77,1.77,0,0,1-1.94-1,2,2,0,0,1-.07-1.12l.17-1c.22-1.3.44-2.56.66-3.8.05-.31.1-.62.16-.93a2.9,2.9,0,0,0,.09-.84,1.27,1.27,0,0,0-.3-.7l-.63-.62L277,214.13,275.78,213c-.19-.2-.38-.36-.58-.61a1.64,1.64,0,0,1-.3-.83,1.69,1.69,0,0,1,.67-1.5,1.72,1.72,0,0,1,.77-.31l.71-.1,5.08-.7c1.7.12,1.9-1.62,2.48-2.44l1.15-2.17A4.73,4.73,0,0,1,286.19,203.59Z" style="fill:#263238"></path><path d="M352.64,142.59a15.86,15.86,0,0,0-3.79-.65,13.56,13.56,0,0,0-4.44.61,13.86,13.86,0,0,0-2.58,1.07,14.61,14.61,0,0,0-2.56,1.81,12.68,12.68,0,0,0-2.21,2.63,6.16,6.16,0,0,0-.94,3.48,2.63,2.63,0,0,0,.7,1.67,2.07,2.07,0,0,0,1.69.63,3.17,3.17,0,0,0,2.75-2.53,6,6,0,0,0-.93-4.15,9.74,9.74,0,0,0-3.21-3.24,11.76,11.76,0,0,0-9.34-1.33,9,9,0,0,0-4.12,2.52,4.72,4.72,0,0,0-1.33,4.25,3.38,3.38,0,0,0,3.4,2.26,3.82,3.82,0,0,0,3.5-2,5.24,5.24,0,0,0,.18-4,5.74,5.74,0,0,0-2.36-3,9.12,9.12,0,0,0-6.87-1,12,12,0,0,0-5.27,2.61,13.14,13.14,0,0,0-2.87,3.43,14.81,14.81,0,0,0-1.41,3.58.84.84,0,0,1,0-.26c0-.16.07-.41.14-.73a12.5,12.5,0,0,1,1.06-2.69,13.17,13.17,0,0,1,2.86-3.55,12.3,12.3,0,0,1,5.38-2.75,9.51,9.51,0,0,1,7.19,1,6.2,6.2,0,0,1,2.56,3.24,5.68,5.68,0,0,1-.2,4.37,4.06,4.06,0,0,1-1.6,1.71,4.78,4.78,0,0,1-2.32.61,4.65,4.65,0,0,1-2.36-.64,3.39,3.39,0,0,1-1.53-2A4.09,4.09,0,0,1,322,147a6.52,6.52,0,0,1,1.31-2.19,8.45,8.45,0,0,1,2-1.63,12.55,12.55,0,0,1,1.15-.6c.4-.16.81-.31,1.22-.45a12.22,12.22,0,0,1,9.76,1.4,10.2,10.2,0,0,1,3.37,3.42,6.48,6.48,0,0,1,1,4.5,3.64,3.64,0,0,1-3.19,2.89,2.57,2.57,0,0,1-2-.78,3.06,3.06,0,0,1-.81-1.94,6.45,6.45,0,0,1,1-3.73,12.93,12.93,0,0,1,2.3-2.69,14.64,14.64,0,0,1,2.65-1.83,14.44,14.44,0,0,1,2.66-1.06,13.55,13.55,0,0,1,4.53-.53,13.9,13.9,0,0,1,1.66.19c.47.12.87.2,1.18.3l.71.26C352.57,142.55,352.65,142.58,352.64,142.59Z" style="fill:#455a64"></path></g></svg>